<svg width="24" height="24" viewBox="0 0 24 24" fill="none" xmlns="http://www.w3.org/2000/svg">
<path d="M6.08999 4.914C5.86199 5.1 5.42399 4.98 5.10599 4.632C4.97399 4.764 4.87799 4.884 4.75799 5.016C5.10599 5.298 5.26199 5.748 5.07599 5.958C4.88999 6.186 4.43999 6.144 4.09199 5.862C3.99599 5.994 3.90599 6.144 3.80999 6.276C4.19399 6.528 4.37999 6.912 4.24799 7.17C4.11599 7.428 3.67799 7.452 3.26399 7.236C3.19799 7.398 3.10199 7.554 3.03599 7.674C3.44999 7.86 3.67199 8.178 3.56999 8.472C3.47399 8.724 3.06599 8.82 2.65199 8.7C2.58599 8.862 2.55599 9.018 2.51999 9.18C2.93399 9.312 3.20999 9.594 3.15599 9.846C3.08999 10.128 2.71799 10.284 2.30399 10.23C2.27999 10.392 2.27999 10.578 2.23799 10.734C2.65199 10.8 2.96999 11.016 2.96999 11.304C2.96999 11.592 2.62199 11.784 2.21399 11.808C2.21399 11.97 2.21399 12.156 2.21399 12.312C2.62799 12.312 2.96999 12.498 3.01199 12.75C3.03599 13.002 2.75999 13.284 2.34599 13.35C2.36999 13.512 2.41199 13.698 2.44199 13.854C2.85599 13.788 3.19799 13.92 3.26399 14.172C3.32999 14.424 3.10199 14.742 2.72999 14.862C2.79599 15.024 2.82599 15.18 2.89199 15.342C3.27599 15.21 3.64799 15.318 3.74399 15.528C3.83999 15.78 3.67799 16.098 3.30599 16.326C3.37199 16.488 3.46799 16.608 3.55799 16.764C3.90599 16.578 4.28999 16.602 4.40999 16.83C4.57199 17.058 4.40999 17.4 4.12799 17.652C4.22399 17.784 4.31399 17.934 4.44599 18.066C4.76399 17.838 5.13599 17.814 5.29799 18C5.48399 18.186 5.39399 18.57 5.13599 18.852C5.26799 18.984 5.38799 19.104 5.51999 19.2C5.80199 18.918 6.15599 18.816 6.37199 18.972C6.58199 19.134 6.55799 19.506 6.34799 19.866C6.47999 19.962 6.62999 20.052 6.76199 20.148C7.01399 19.83 7.33199 19.668 7.55999 19.8C7.78799 19.932 7.84199 20.304 7.65599 20.694C7.81799 20.79 7.97399 20.856 8.09399 20.922C8.27999 20.574 8.59799 20.352 8.84999 20.442C9.10199 20.538 9.19799 20.922 9.10199 21.294C9.26399 21.36 9.41999 21.39 9.58199 21.456C9.71399 21.072 9.99599 20.82 10.248 20.856C10.5 20.922 10.662 21.27 10.632 21.678C10.794 21.702 10.98 21.744 11.136 21.744C11.202 21.33 11.418 21.012 11.706 21.054C11.988 21.054 12.186 21.402 12.21 21.852C12.372 21.852 12.558 21.852 12.714 21.852C12.714 21.438 12.9 21.096 13.152 21.054C13.434 21.03 13.686 21.336 13.788 21.744C13.95 21.72 14.136 21.678 14.292 21.648C14.196 21.234 14.358 20.85 14.61 20.754C14.892 20.688 15.21 20.94 15.342 21.39C15.504 21.324 15.66 21.294 15.822 21.228C15.66 20.814 15.726 20.406 15.984 20.286C16.236 20.166 16.62 20.418 16.806 20.82C16.968 20.754 17.124 20.658 17.244 20.592C17.016 20.208 17.016 19.77 17.244 19.608C17.496 19.446 17.91 19.632 18.162 20.022C18.294 19.926 18.444 19.836 18.576 19.704C18.258 19.356 18.192 18.906 18.414 18.72C18.642 18.534 19.08 18.654 19.398 19.002C19.53 18.87 19.65 18.75 19.746 18.654C19.362 18.336 19.242 17.922 19.398 17.712C19.584 17.484 20.034 17.526 20.406 17.844C20.406 17.844 20.406 17.844 20.43 17.868C20.526 17.736 20.658 17.586 20.748 17.454C20.334 17.202 20.112 16.818 20.244 16.536C20.406 16.284 20.844 16.254 21.252 16.512L21.276 16.536C21.372 16.374 21.438 16.218 21.504 16.056H21.48C21.042 15.894 20.748 15.522 20.844 15.234C20.94 14.94 21.414 14.85 21.852 15.048C21.876 15.048 21.876 15.072 21.918 15.072C21.984 14.91 22.05 14.724 22.08 14.568C22.056 14.568 22.056 14.568 22.014 14.568C21.534 14.472 21.192 14.154 21.258 13.878C21.324 13.596 21.762 13.44 22.242 13.53C22.266 13.53 22.308 13.53 22.338 13.554C22.362 13.368 22.404 13.206 22.434 13.02C22.41 13.02 22.368 13.02 22.338 13.02C21.858 12.996 21.486 12.738 21.486 12.45C21.486 12.162 21.9 11.916 22.38 11.946C22.404 11.946 22.446 11.946 22.512 11.946C22.512 11.76 22.512 11.598 22.512 11.412C22.488 11.412 22.446 11.412 22.416 11.412C21.936 11.478 21.522 11.25 21.498 10.974C21.474 10.692 21.816 10.404 22.32 10.338C22.344 10.338 22.416 10.338 22.452 10.338C22.428 10.152 22.386 9.99 22.356 9.804C22.332 9.804 22.29 9.828 22.224 9.828C21.744 9.96 21.306 9.828 21.24 9.546C21.144 9.264 21.468 8.91 21.93 8.79C21.954 8.79 22.026 8.76601 22.062 8.76601C21.996 8.58001 21.93 8.418 21.876 8.262C21.852 8.286 21.81 8.286 21.744 8.328C21.306 8.514 20.85 8.46 20.736 8.196C20.604 7.914 20.868 7.53 21.306 7.344C21.372 7.32 21.402 7.32 21.468 7.278C21.372 7.116 21.306 6.96 21.216 6.798C21.192 6.822 21.15 6.864 21.084 6.894C20.67 7.146 20.232 7.176 20.034 6.918C19.872 6.666 20.058 6.252 20.472 5.976C20.496 5.952 20.568 5.91 20.604 5.91C20.508 5.748 20.376 5.628 20.256 5.472C20.232 5.496 20.19 5.538 20.16 5.568C19.812 5.886 19.338 5.982 19.152 5.754C18.966 5.526 19.086 5.088 19.434 4.77C19.458 4.746 19.53 4.704 19.566 4.674C19.434 4.542 19.314 4.422 19.152 4.29C19.128 4.314 19.086 4.356 19.056 4.422C18.738 4.806 18.324 4.956 18.072 4.77C17.844 4.584 17.886 4.134 18.204 3.762C18.228 3.738 18.27 3.666 18.3 3.63C18.138 3.534 18.018 3.402 17.862 3.312C17.838 3.336 17.838 3.408 17.796 3.444C17.544 3.858 17.16 4.08 16.878 3.948C16.626 3.786 16.596 3.348 16.854 2.94C16.878 2.916 16.92 2.844 16.95 2.808C16.788 2.712 16.632 2.646 16.446 2.556C16.446 2.58 16.422 2.652 16.422 2.688C16.26 3.126 15.888 3.42 15.6 3.324C15.306 3.228 15.216 2.754 15.414 2.316C15.438 2.292 15.438 2.22 15.48 2.184C15.318 2.118 15.132 2.088 14.946 2.022C14.946 2.046 14.946 2.088 14.922 2.154C14.826 2.634 14.508 2.976 14.232 2.91C13.95 2.844 13.794 2.406 13.884 1.926C13.884 1.902 13.908 1.83 13.908 1.794C13.722 1.77 13.56 1.728 13.374 1.728C13.374 1.752 13.374 1.794 13.374 1.824C13.35 2.304 13.092 2.676 12.804 2.676C12.522 2.676 12.27 2.262 12.3 1.782C12.3 1.758 12.3 1.716 12.3 1.686C12.114 1.686 11.952 1.686 11.766 1.686C11.766 1.71 11.766 1.752 11.766 1.782C11.832 2.262 11.604 2.676 11.328 2.7C11.046 2.724 10.758 2.382 10.692 1.878C10.692 1.854 10.692 1.812 10.692 1.782C10.53 1.806 10.344 1.848 10.188 1.878C10.188 1.902 10.188 1.902 10.212 1.944C10.344 2.424 10.212 2.862 9.92999 2.928C9.64799 3.024 9.29399 2.7 9.17399 2.238C9.17399 2.214 9.17399 2.214 9.17399 2.172C9.01199 2.238 8.85599 2.304 8.66999 2.358C8.66999 2.358 8.66999 2.382 8.69399 2.382C8.87999 2.82 8.82599 3.276 8.56199 3.39C8.27999 3.522 7.89599 3.258 7.70999 2.82V2.796C7.54799 2.892 7.39199 2.958 7.27199 3.048C7.52399 3.462 7.55399 3.9 7.29599 4.098C7.04399 4.26 6.62999 4.074 6.35399 3.66C6.22199 3.756 6.07199 3.888 5.93999 3.978C6.22199 4.29 6.31199 4.728 6.08999 4.914ZM5.65199 10.404C5.26799 10.272 5.05199 9.87 5.17199 9.486C5.30399 9.102 5.70599 8.886 6.08999 9.006C6.47399 9.138 6.68999 9.54 6.56999 9.924C6.47399 10.302 6.03599 10.524 5.65199 10.404ZM6.31199 17.334C4.47599 15.312 3.67799 12.492 4.75799 11.508C5.80799 10.566 8.17799 11.922 10.05 13.944C11.886 15.966 13.056 18.438 11.976 19.422C10.902 20.382 8.14799 19.332 6.31199 17.334ZM14.04 19.17C13.626 19.266 13.242 19.008 13.146 18.6C13.05 18.186 13.308 17.802 13.716 17.706C14.13 17.61 14.514 17.868 14.61 18.276C14.682 18.708 14.43 19.08 14.04 19.17ZM19.176 8.346C20.532 8.78401 21.012 11.67 20.184 14.268C19.356 16.866 17.298 18.966 15.942 18.552C14.586 18.114 14.586 15.348 15.408 12.75C16.224 10.182 17.82 7.89001 19.176 8.346ZM18.006 6.63C18.288 6.948 18.258 7.386 17.94 7.68C17.622 7.974 17.184 7.932 16.89 7.614C16.596 7.296 16.638 6.858 16.956 6.564C17.274 6.312 17.754 6.348 18.006 6.63ZM13.854 10.434C14.61 11.256 14.544 12.522 13.722 13.278C12.9 14.034 11.634 13.968 10.878 13.146C10.122 12.324 10.188 11.058 11.01 10.302C11.82 9.54 13.098 9.606 13.854 10.434ZM10.626 3.78C13.284 3.21 16.134 3.942 16.452 5.334C16.77 6.726 14.364 8.088 11.706 8.688C9.04799 9.258 6.29399 9.036 5.99999 7.638C5.67599 6.216 7.96199 4.356 10.626 3.78Z" fill="white"/>
</svg>
