<svg width="20" height="20" viewBox="0 0 20 20" fill="none" xmlns="http://www.w3.org/2000/svg">
<path d="M18.0312 4.79688L10.4844 0.453125C10.3594 0.375 10.1875 0.34375 10 0.34375C9.8125 0.34375 9.64062 0.390625 9.51562 0.453125L2.01562 4.8125C1.75 4.96875 1.5625 5.35938 1.5625 5.65625V14.3594C1.5625 14.5313 1.59375 14.7344 1.71875 14.9063L18.4062 5.21875C18.3125 5.03125 18.1719 4.89062 18.0312 4.79688Z" fill="#659AD3"/>
<path d="M1.67188 14.8906C1.75 15.0156 1.85938 15.125 1.96875 15.1875L9.5 19.5469C9.625 19.625 9.79688 19.6562 9.98438 19.6562C10.1719 19.6562 10.3438 19.6094 10.4688 19.5469L17.9688 15.1875C18.2344 15.0312 18.4219 14.6406 18.4219 14.3438V5.64062C18.4219 5.5 18.4062 5.34375 18.3281 5.20312L1.67188 14.8906Z" fill="#03599C"/>
<path d="M13.3281 11.8906C12.6719 13.0469 11.4219 13.8281 10 13.8281C7.89062 13.8281 6.17188 12.1094 6.17188 10C6.17188 7.89062 7.89062 6.17188 10 6.17188C11.4219 6.17188 12.6719 6.95312 13.3281 8.125L15.3594 6.95312C14.2969 5.09375 12.2969 3.82812 10 3.82812C6.59375 3.82812 3.82812 6.59375 3.82812 10C3.82812 13.4062 6.59375 16.1719 10 16.1719C12.2812 16.1719 14.2812 14.9219 15.3438 13.0781L13.3281 11.8906Z" fill="white"/>
</svg>
