<svg width="20" height="20" viewBox="0 0 20 20" fill="none" xmlns="http://www.w3.org/2000/svg">
<path fill-rule="evenodd" clip-rule="evenodd" d="M3.29682 10.7344C3.32807 11.2813 3.87494 11.0313 4.12494 10.8594C4.35932 10.6875 4.43744 10.8281 4.45307 10.5C4.46869 10.2813 4.48432 10.0781 4.48432 9.85938C4.12494 9.82813 3.73432 9.90625 3.43744 10.125C3.29682 10.2344 2.99994 10.5938 3.29682 10.7344" fill="#F6D2A2"/>
<path d="M3.59375 11.125C3.48437 11.125 3.28125 11.0781 3.25 10.7656C3.15625 10.7031 3.125 10.625 3.125 10.5781C3.10937 10.3906 3.3125 10.1719 3.42187 10.0937C3.67187 9.90625 4 9.8125 4.34375 9.8125H4.54687V9.85937C4.5625 10.0312 4.54687 10.2031 4.53125 10.3594C4.53125 10.4063 4.53125 10.4531 4.51562 10.5C4.5 10.7344 4.45312 10.7656 4.34375 10.8125C4.29687 10.8281 4.25 10.8438 4.17187 10.9063C4.09375 10.9531 3.82812 11.125 3.59375 11.125V11.125ZM4.34375 9.90625C4.01562 9.90625 3.71875 10 3.48437 10.1719C3.375 10.25 3.21875 10.4375 3.23437 10.5625C3.23437 10.6094 3.26562 10.6563 3.32812 10.6875L3.35937 10.7031V10.7344C3.375 10.9844 3.5 11.0156 3.59375 11.0156C3.75 11.0156 3.96875 10.9062 4.10937 10.8125C4.20312 10.75 4.26562 10.7344 4.3125 10.7188C4.39062 10.6875 4.40625 10.6875 4.42187 10.5C4.42187 10.4531 4.42187 10.4063 4.4375 10.3594C4.45312 10.2188 4.45312 10.0625 4.45312 9.92188C4.40625 9.90625 4.375 9.90625 4.34375 9.90625V9.90625Z" fill="black"/>
<path fill-rule="evenodd" clip-rule="evenodd" d="M3.29688 10.7344C3.375 10.7031 3.46875 10.6875 3.51563 10.6094Z" fill="#C6B198"/>
<path d="M3.2969 10.7813C3.28128 10.7813 3.25003 10.7656 3.25003 10.75C3.2344 10.7188 3.25003 10.6875 3.28128 10.6875C3.2969 10.6875 3.31253 10.6719 3.31253 10.6719C3.37503 10.6406 3.43753 10.625 3.46878 10.5781C3.4844 10.5625 3.51565 10.5469 3.5469 10.5625C3.56253 10.5781 3.57815 10.6094 3.56253 10.6406C3.50003 10.7188 3.4219 10.75 3.3594 10.7656L3.32815 10.7813H3.2969Z" fill="black"/>
<path fill-rule="evenodd" clip-rule="evenodd" d="M4.57809 4.12499C2.4531 3.53124 4.03122 0.828118 5.73435 1.93749L4.57809 4.12499V4.12499Z" fill="#6AD7E5"/>
<path d="M4.60943 4.1875L4.56256 4.17188C3.4688 3.85938 3.48443 3.07813 3.51568 2.84375C3.5938 2.25 4.1563 1.625 4.9063 1.625C5.20318 1.625 5.48443 1.71875 5.76568 1.90625L5.81256 1.9375L4.60943 4.1875V4.1875ZM4.9063 1.73438C4.20318 1.73438 3.68755 2.3125 3.60943 2.85937C3.5313 3.42187 3.87505 3.85938 4.54693 4.0625L5.65631 1.95313C5.42193 1.8125 5.17193 1.73438 4.9063 1.73438V1.73438Z" fill="black"/>
<path fill-rule="evenodd" clip-rule="evenodd" d="M14 1.73437C15.6719 0.562495 17.2031 3.21875 15.25 3.89062L14 1.73437V1.73437Z" fill="#6AD7E5"/>
<path d="M15.2344 3.95312L13.9375 1.71875L13.9844 1.6875C14.2813 1.48438 14.5781 1.375 14.875 1.375C15.5937 1.375 16.1094 1.96875 16.2188 2.54687C16.2656 2.78125 16.3125 3.57812 15.2813 3.92187L15.2344 3.95312ZM14.0781 1.76562L15.2813 3.84375C15.8906 3.625 16.2031 3.15625 16.1094 2.59375C16.0156 2.0625 15.5312 1.51562 14.875 1.51562C14.6094 1.5 14.3438 1.57812 14.0781 1.76562Z" fill="black"/>
<path fill-rule="evenodd" clip-rule="evenodd" d="M14.375 17.5469C14.7969 17.8125 15.5781 18.6094 14.9375 19C14.3281 19.5625 13.9844 18.375 13.4375 18.2187C13.6719 17.9062 13.9687 17.6094 14.375 17.5469Z" fill="#F6D2A2"/>
<path d="M14.6094 19.2031C14.3594 19.2031 14.1406 18.9531 13.9531 18.7188C13.7813 18.5313 13.6094 18.3281 13.4219 18.2656L13.3438 18.25L13.3906 18.1875C13.5781 17.9219 13.8906 17.5781 14.3594 17.5H14.375L14.3906 17.5156C14.6562 17.6875 15.2344 18.1719 15.2188 18.625C15.2188 18.7969 15.125 18.9375 14.9531 19.0469C14.8437 19.1563 14.7344 19.2031 14.6094 19.2031V19.2031ZM13.5156 18.1875C13.7031 18.2656 13.8594 18.4688 14.0156 18.6406C14.2031 18.875 14.3906 19.0781 14.5938 19.0781C14.6875 19.0781 14.7812 19.0312 14.875 18.9375H14.8906C15.0313 18.8437 15.1094 18.7344 15.1094 18.5937C15.1094 18.2344 14.6563 17.7812 14.3438 17.5781C14.0625 17.6562 13.7812 17.8438 13.5156 18.1875ZM14.9375 19.0469C14.9219 19.0469 14.9063 19.0312 14.8906 19.0156C14.8594 18.9531 14.8281 18.875 14.8125 18.8125C14.7656 18.6875 14.7187 18.5625 14.625 18.4687C14.6094 18.4531 14.6094 18.4219 14.625 18.3906C14.6406 18.375 14.6719 18.375 14.7031 18.3906C14.8125 18.5 14.875 18.6406 14.9219 18.7812L15 18.9688C15.0156 19 15 19.0313 14.9844 19.0469H14.9375V19.0469Z" fill="black"/>
<path fill-rule="evenodd" clip-rule="evenodd" d="M6.74995 18.4531C6.24995 18.5312 5.9687 18.9844 5.54683 19.2187C5.1562 19.4531 4.99995 19.1406 4.9687 19.0781C4.9062 19.0469 4.9062 19.1094 4.81245 19.0156C4.45308 18.4375 5.18745 18.0156 5.57808 17.7344C6.12495 17.6094 6.4687 18.0781 6.74995 18.4531" fill="#F6D2A2"/>
<path d="M5.2812 19.3437C5.07807 19.3437 4.9687 19.1719 4.93745 19.1094H4.92182C4.87495 19.1094 4.8437 19.0938 4.7812 19.0313V19.0156C4.43745 18.4687 5.0312 18.0469 5.42182 17.7656L5.56245 17.6719H5.5937C5.6562 17.6562 5.70307 17.6562 5.76557 17.6562C6.23432 17.6562 6.5312 18.0625 6.7812 18.3906L6.85932 18.5L6.76557 18.5156C6.4687 18.5625 6.24995 18.75 6.0312 18.9375C5.89057 19.0625 5.74995 19.1719 5.5937 19.2656C5.4687 19.3125 5.37495 19.3437 5.2812 19.3437V19.3437ZM4.93745 19.0156C4.95307 19.0156 4.9687 19.0156 4.99995 19.0313H5.01557L5.0312 19.0469C5.06245 19.0937 5.14057 19.2344 5.29682 19.2344C5.37495 19.2344 5.45307 19.2031 5.5312 19.1562C5.68745 19.0781 5.82807 18.9531 5.95307 18.8437C6.1562 18.6719 6.37495 18.4844 6.6562 18.4063C6.42182 18.0938 6.14057 17.75 5.74995 17.75C5.70307 17.75 5.6562 17.75 5.60932 17.7656L5.48432 17.8594C5.07807 18.1406 4.57807 18.5 4.87495 18.9687C4.89057 19 4.9062 19.0156 4.93745 19.0156V19.0156ZM4.9687 19.125C4.93745 19.125 4.9062 19.0937 4.92182 19.0625C4.93745 18.9062 5.01557 18.7969 5.0937 18.6719C5.14057 18.6094 5.17182 18.5469 5.20307 18.4844C5.2187 18.4531 5.24995 18.4531 5.26557 18.4531C5.29682 18.4687 5.29682 18.5 5.29682 18.5156C5.26557 18.5937 5.2187 18.6563 5.17182 18.7188C5.0937 18.8281 5.0312 18.9219 5.01557 19.0469C5.01557 19.1094 4.99995 19.125 4.9687 19.125V19.125Z" fill="black"/>
<path fill-rule="evenodd" clip-rule="evenodd" d="M4.6719 3.39062C4.39065 3.25 4.18752 3.04687 4.3594 2.71875C4.51565 2.42187 4.81252 2.45312 5.09377 2.59375L4.6719 3.39062V3.39062ZM14.8125 3.10937C15.0938 2.96875 15.2969 2.76562 15.125 2.4375C14.9688 2.14062 14.6719 2.17187 14.3906 2.3125L14.8125 3.10937Z" fill="black"/>
<path fill-rule="evenodd" clip-rule="evenodd" d="M16.7344 10.6563C16.7031 11.2031 16.1563 10.9531 15.9063 10.7813C15.6719 10.6094 15.5937 10.75 15.5781 10.4219C15.5625 10.2031 15.5469 10 15.5469 9.78125C15.9062 9.75 16.2969 9.82813 16.5937 10.0469C16.75 10.1719 17.0312 10.5156 16.7344 10.6563" fill="#F6D2A2"/>
<path d="M16.4531 11.0469C16.2188 11.0469 15.9531 10.875 15.875 10.8281C15.7969 10.7813 15.75 10.75 15.7031 10.7344C15.5781 10.6875 15.5469 10.6562 15.5313 10.4219C15.5313 10.375 15.5313 10.3281 15.5156 10.2813C15.5 10.125 15.4844 9.95312 15.5 9.78125V9.73438H15.7031C16.0469 9.73438 16.375 9.82812 16.625 10.0156C16.7344 10.0937 16.9375 10.3125 16.9219 10.5C16.9219 10.5625 16.8906 10.6406 16.7969 10.6875C16.7656 11 16.5625 11.0469 16.4531 11.0469V11.0469ZM15.5938 9.84375C15.5938 9.98438 15.5938 10.1406 15.6094 10.2813C15.6094 10.3281 15.6094 10.375 15.625 10.4219C15.6406 10.6094 15.6563 10.6094 15.7344 10.6406C15.7813 10.6563 15.8438 10.6875 15.9375 10.7344C16.0781 10.8281 16.2969 10.9375 16.4531 10.9375C16.5469 10.9375 16.6719 10.9062 16.6875 10.6562V10.625L16.7188 10.6094C16.7813 10.5781 16.8125 10.5469 16.8125 10.4844C16.8281 10.3594 16.6719 10.1719 16.5625 10.0937C16.3281 9.92187 16.0156 9.82813 15.7031 9.82813C15.6719 9.84375 15.6406 9.84375 15.5938 9.84375V9.84375Z" fill="black"/>
<path fill-rule="evenodd" clip-rule="evenodd" d="M16.7344 10.6562C16.6563 10.625 16.5625 10.6094 16.5156 10.5312Z" fill="#C6B198"/>
<path d="M16.7344 10.7187H16.7188L16.6875 10.7031C16.6094 10.6719 16.5313 10.6562 16.4844 10.5781C16.4688 10.5625 16.4688 10.5156 16.5 10.5C16.5156 10.4844 16.5625 10.4844 16.5781 10.5156C16.6094 10.5625 16.6719 10.5781 16.7344 10.6094C16.75 10.6094 16.7656 10.625 16.7656 10.625C16.7969 10.6406 16.8125 10.6719 16.7969 10.6875C16.7813 10.7031 16.75 10.7187 16.7344 10.7187Z" fill="black"/>
<path fill-rule="evenodd" clip-rule="evenodd" d="M9.81251 0.625C11.9375 0.625 13.9219 0.921875 14.9688 2.96875C15.9063 5.25 15.5625 7.71875 15.7188 10.1406C15.8438 12.2188 16.1094 14.6094 15.1563 16.5313C14.1406 18.5469 11.6094 19.0625 9.53126 18.9844C7.89064 18.9219 5.92189 18.3906 4.98439 16.8906C3.90626 15.1406 4.40626 12.5312 4.48439 10.5781C4.57814 8.26562 3.85939 5.9375 4.62501 3.6875C5.39064 1.32812 7.51564 0.796875 9.81251 0.625Z" fill="#6AD7E5"/>
<path d="M9.89057 19.0469H9.49995C8.85932 19.0312 7.89057 18.9219 6.93745 18.5312C6.01557 18.1562 5.3437 17.625 4.9062 16.9219C4.0312 15.5 4.18745 13.5469 4.32807 11.8125C4.35932 11.375 4.39057 10.9687 4.4062 10.5781C4.43745 9.76562 4.37495 8.92188 4.29682 8.125C4.17182 6.65625 4.04682 5.14063 4.5312 3.67188C4.9062 2.57813 5.57807 1.79688 6.5937 1.29688C7.39057 0.90625 8.37495 0.6875 9.7812 0.578125C11.8749 0.5625 13.9531 0.859375 14.9999 2.9375C15.6874 4.60938 15.6874 6.40625 15.7031 8.14063C15.7031 8.79688 15.7031 9.46875 15.7499 10.125C15.7656 10.3281 15.7812 10.5312 15.7812 10.7344C15.9062 12.6406 16.0468 14.7969 15.1718 16.5469C14.7343 17.4375 13.9687 18.0937 12.9218 18.5156C12.0781 18.8594 11.0156 19.0469 9.89057 19.0469V19.0469ZM9.81245 0.671875C7.60932 0.84375 5.45307 1.32813 4.6562 3.70313C4.17182 5.15625 4.29682 6.65625 4.42182 8.10938C4.48432 8.92188 4.56245 9.75 4.5312 10.5781C4.51557 10.9687 4.48432 11.375 4.45307 11.8125C4.31245 13.5312 4.1562 15.4688 5.01557 16.8594C5.37495 17.4375 6.5312 18.8125 9.51557 18.9219H9.9062C13.3593 18.9219 14.6406 17.3906 15.1093 16.4844C15.9687 14.7656 15.8281 12.6094 15.7187 10.7187C15.7031 10.5156 15.6874 10.3125 15.6874 10.1094C15.6562 9.45312 15.6406 8.78125 15.6406 8.125C15.6249 6.40625 15.6249 4.60938 14.9531 2.95313C14.4843 2.03125 13.7812 1.40625 12.8124 1.04688C11.8124 0.71875 10.6874 0.671875 9.81245 0.671875V0.671875Z" fill="black"/>
<path fill-rule="evenodd" clip-rule="evenodd" d="M10.1875 3.46875C10.5625 5.6875 14.1875 5.09375 13.6718 2.85937C13.2031 0.859373 10.0625 1.42187 10.1875 3.46875Z" fill="white"/>
<path d="M11.9063 4.92187C11.2031 4.92187 10.3125 4.54687 10.125 3.48437C10.0938 2.98437 10.25 2.53125 10.5781 2.1875C10.9375 1.79687 11.4844 1.57812 12.0469 1.57812C12.7031 1.57812 13.4844 1.92187 13.7031 2.875C13.8281 3.40625 13.7344 3.875 13.4375 4.25C13.1094 4.65625 12.5313 4.92187 11.9063 4.92187ZM10.2344 3.46875C10.3125 3.90625 10.5156 4.25 10.8438 4.5C11.125 4.71875 11.5156 4.82812 11.9063 4.82812C12.4844 4.82812 13.0469 4.57812 13.3594 4.1875C13.6406 3.84375 13.7188 3.39062 13.6094 2.89062C13.4063 2 12.6719 1.6875 12.0469 1.6875C11.5156 1.6875 11 1.90625 10.6563 2.26562C10.3594 2.57812 10.2031 3 10.2344 3.46875V3.46875Z" fill="black"/>
<path fill-rule="evenodd" clip-rule="evenodd" d="M5.8594 3.82813C6.3594 5.75001 9.43752 5.26563 9.32815 3.32813C9.18752 1.01563 5.37502 1.45313 5.8594 3.82813Z" fill="white"/>
<path d="M7.5 5.10938C6.82813 5.10938 6.04688 4.78125 5.79688 3.84375C5.6875 3.29688 5.79688 2.79688 6.10938 2.42188C6.45313 2 7.01563 1.75 7.625 1.75C8.4375 1.75 9.29688 2.23437 9.35938 3.32812C9.39063 3.78125 9.25 4.1875 8.9375 4.51563C8.60938 4.875 8.0625 5.10938 7.5 5.10938ZM7.625 1.85937C7.04688 1.85937 6.51563 2.09375 6.1875 2.48437C5.89063 2.84375 5.79688 3.29687 5.90625 3.8125C6.125 4.6875 6.875 5 7.5 5C8.03125 5 8.54688 4.79688 8.875 4.4375C9.15625 4.14063 9.29688 3.75 9.26563 3.32812C9.23438 2.65625 8.78125 1.85937 7.625 1.85937V1.85937Z" fill="black"/>
<path fill-rule="evenodd" clip-rule="evenodd" d="M10.625 6.125C10.625 6.40625 10.6875 6.73437 10.6407 7.04687C10.5625 7.1875 10.4219 7.20312 10.2969 7.25C10.125 7.21875 9.98442 7.10937 9.90629 6.95312C9.85942 6.60937 9.92192 6.26563 9.93754 5.92188L10.625 6.125V6.125Z" fill="white"/>
<path d="M10.2969 7.3125C10.0937 7.28125 9.93748 7.15625 9.85935 6.98438C9.8281 6.73438 9.84373 6.5 9.85935 6.26562C9.87498 6.15625 9.87498 6.04688 9.87498 5.9375V5.875L10.6719 6.125V6.15625C10.6719 6.25 10.6875 6.34375 10.6875 6.45313C10.7031 6.65625 10.7187 6.875 10.6875 7.07813V7.09375C10.625 7.21875 10.5156 7.25 10.4062 7.29688C10.375 7.28125 10.3437 7.29687 10.2969 7.3125ZM9.9531 6.9375C10.0156 7.07813 10.1406 7.17187 10.2812 7.20312C10.3125 7.1875 10.3437 7.1875 10.3594 7.17188C10.4531 7.14063 10.5312 7.10938 10.5781 7.03125C10.6094 6.84375 10.5937 6.64063 10.5781 6.4375C10.5781 6.34375 10.5625 6.25 10.5625 6.17188L9.96873 5.98438C9.96873 6.07813 9.9531 6.17188 9.9531 6.25C9.93748 6.5 9.92185 6.71875 9.9531 6.9375V6.9375Z" fill="black"/>
<path fill-rule="evenodd" clip-rule="evenodd" d="M7.23437 3.51563C7.23437 3.82812 7 4.07813 6.71875 4.07813C6.4375 4.07813 6.20312 3.82812 6.20312 3.51563C6.20312 3.20313 6.4375 2.95312 6.71875 2.95312C7 2.95312 7.23437 3.20313 7.23437 3.51563Z" fill="black"/>
<path fill-rule="evenodd" clip-rule="evenodd" d="M7.0625 3.64062C7.0625 3.71875 7 3.78125 6.9375 3.78125C6.875 3.78125 6.8125 3.71875 6.8125 3.64062C6.8125 3.5625 6.875 3.5 6.9375 3.5C7.01563 3.5 7.0625 3.5625 7.0625 3.64062Z" fill="white"/>
<path fill-rule="evenodd" clip-rule="evenodd" d="M11.5937 3.375C11.5937 3.6875 11.3594 3.9375 11.0781 3.9375C10.7969 3.9375 10.5625 3.6875 10.5625 3.375C10.5625 3.0625 10.7969 2.8125 11.0781 2.8125C11.3594 2.8125 11.5937 3.0625 11.5937 3.375Z" fill="black"/>
<path fill-rule="evenodd" clip-rule="evenodd" d="M11.4375 3.5C11.4375 3.57812 11.3906 3.64062 11.3125 3.64062C11.25 3.64062 11.1875 3.57812 11.1875 3.5C11.1875 3.42187 11.2344 3.35938 11.3125 3.35938C11.375 3.35938 11.4375 3.42187 11.4375 3.5ZM9.125 6.09375C8.89062 6.64062 9.25 7.75 9.875 6.9375C9.82812 6.59375 9.89062 6.25 9.90625 5.90625L9.125 6.09375Z" fill="white"/>
<path d="M9.45311 7.28125C9.34373 7.28125 9.23436 7.21875 9.15623 7.09375C8.98436 6.84375 8.95311 6.375 9.07811 6.07813L9.09373 6.04688L9.95311 5.82812V5.89063L9.93748 6.23438C9.92186 6.46875 9.90623 6.6875 9.93748 6.92188V6.9375L9.92186 6.95313C9.76561 7.17188 9.60936 7.28125 9.45311 7.28125ZM9.17186 6.14063C9.07811 6.40625 9.10936 6.82813 9.24998 7.03125C9.31248 7.125 9.37498 7.17188 9.45311 7.17188C9.56248 7.17188 9.68748 7.07813 9.81248 6.92188C9.78123 6.6875 9.79686 6.45313 9.82811 6.23438L9.84373 5.96875L9.17186 6.14063Z" fill="black"/>
<path fill-rule="evenodd" clip-rule="evenodd" d="M9.20316 5.03125C8.78128 5.0625 8.43753 5.57813 8.65628 5.96875C8.95316 6.5 9.59378 5.92188 10 5.96875C10.4688 5.98438 10.8438 6.46875 11.2188 6.0625C11.6407 5.60937 11.0313 5.17187 10.5782 4.96875L9.20316 5.03125V5.03125Z" fill="#F6D2A2"/>
<path d="M10.8907 6.28125C10.7501 6.28125 10.6094 6.21875 10.4688 6.15625C10.3282 6.09375 10.1719 6.03125 10.0001 6.03125H9.95318C9.82818 6.03125 9.68755 6.07812 9.5313 6.14062C9.35943 6.20312 9.18755 6.25 9.0313 6.25C8.8438 6.25 8.70318 6.17188 8.60943 6C8.50005 5.8125 8.51568 5.59375 8.62505 5.39062C8.75005 5.15625 8.9688 5.01562 9.20318 4.98437L10.5938 4.92188H10.6094C10.9532 5.0625 11.3438 5.32812 11.4219 5.64062C11.4532 5.79687 11.4063 5.95312 11.2813 6.09375C11.1563 6.23437 11.0313 6.28125 10.8907 6.28125V6.28125ZM10.0157 5.9375C10.1876 5.9375 10.3594 6.01563 10.5157 6.07813C10.6563 6.14063 10.7813 6.1875 10.9063 6.1875C11.0157 6.1875 11.1094 6.14063 11.2032 6.04688C11.3126 5.9375 11.3438 5.8125 11.3282 5.6875C11.2657 5.42188 10.8907 5.17187 10.5938 5.04687L9.23443 5.10938C9.0313 5.125 8.8438 5.26563 8.73443 5.45313C8.64068 5.625 8.64068 5.8125 8.7188 5.96875C8.79693 6.10938 8.89068 6.17187 9.04693 6.17187C9.18755 6.17187 9.3438 6.10937 9.50005 6.0625C9.67193 6 9.81255 5.95312 9.9688 5.95312C9.9688 5.92187 9.98443 5.92187 10.0157 5.9375V5.9375Z" fill="#231F20"/>
<path fill-rule="evenodd" clip-rule="evenodd" d="M9.15627 5.01562C9.12502 4.28125 10.5313 4.1875 10.6875 4.79687C10.8594 5.42187 9.21877 5.5625 9.15627 5.01562" fill="black"/>
</svg>
