<svg width="20" height="20" viewBox="0 0 20 20" fill="none" xmlns="http://www.w3.org/2000/svg">
<path fill-rule="evenodd" clip-rule="evenodd" d="M13.756 6.68938C14.0068 7.41485 14.1874 8.15547 14.2468 8.92313C14.3205 9.87547 14.2868 10.8211 14.086 11.7578C14.0805 11.7836 14.069 11.8078 14.0604 11.8328C13.9974 11.833 13.9332 11.8252 13.8716 11.8347C13.3515 11.9164 12.8318 12.0011 12.3121 12.0853C11.7749 12.1723 11.2369 12.2559 10.7007 12.3489C10.5107 12.3817 10.2755 12.3425 10.1988 12.6053C10.1966 12.6125 10.1747 12.6138 10.1621 12.6178L10.188 11.0473L10.1616 7.25797L10.4119 7.215C10.8213 7.14797 11.2307 7.08 11.6404 7.01485C12.1293 6.93719 12.6187 6.86172 13.1079 6.78594C13.3237 6.75235 13.5397 6.72156 13.756 6.68938Z" fill="#439934"/>
<path fill-rule="evenodd" clip-rule="evenodd" d="M9.64518 17.1959C9.38112 16.9689 9.10784 16.7519 8.85471 16.5131C7.49268 15.2284 6.49643 13.7164 6.00581 11.8934C5.87065 11.3917 5.78049 10.8819 5.75159 10.3634C5.73128 10.0006 5.7019 9.63453 5.72752 9.2736C5.79581 8.3136 5.93456 7.36281 6.21612 6.43813L6.23159 6.41656C6.25893 6.45297 6.29831 6.48516 6.31221 6.52625C6.58706 7.33563 6.85987 8.14563 7.13128 8.9561C7.98409 11.503 8.83581 14.0505 9.69003 16.5967C9.70674 16.6464 9.75003 16.6872 9.78112 16.732L9.64518 17.1959Z" fill="#45A538"/>
<path fill-rule="evenodd" clip-rule="evenodd" d="M13.7559 6.68938C13.5397 6.72157 13.3234 6.75235 13.1076 6.78563C12.6184 6.86141 12.129 6.93688 11.6401 7.01454C11.2304 7.07969 10.8211 7.14766 10.4117 7.21469L10.1614 7.25766L10.1595 7.09438C10.1512 6.96016 10.137 6.8261 10.1354 6.69188C10.1247 5.83594 10.1179 4.98001 10.1073 4.12407C10.1008 3.58829 10.0909 3.05266 10.08 2.51704C10.0733 2.18423 10.0661 1.85126 10.0511 1.51891C10.0429 1.34032 10.0142 1.16266 10.0025 0.984069C9.99591 0.881413 10.005 0.777975 10.007 0.67485C10.1347 0.922194 10.2595 1.17141 10.3908 1.41688C10.5981 1.80501 10.9284 2.09094 11.2258 2.40298C12.4012 3.6361 13.2358 5.06985 13.7559 6.68938Z" fill="#46A037"/>
<path fill-rule="evenodd" clip-rule="evenodd" d="M10.1619 12.6177C10.1745 12.6136 10.1965 12.6123 10.1986 12.6052C10.2753 12.3423 10.5104 12.3816 10.7004 12.3488C11.2367 12.2559 11.7747 12.1722 12.3118 12.0852C12.8315 12.0009 13.3512 11.9163 13.8714 11.8345C13.9329 11.8248 13.9972 11.8328 14.0601 11.8327C13.9629 12.1795 13.8864 12.5339 13.7631 12.8713C13.6231 13.2539 13.4537 13.6273 13.2739 13.9934C13.0046 14.5395 12.6714 15.0516 12.2812 15.5189C11.9814 15.8795 11.6472 16.2128 11.3122 16.542C11.127 16.7241 10.9087 16.8723 10.7056 17.0359L10.6529 17L10.4633 16.8378L10.267 16.4077C10.133 15.9059 10.0598 15.3898 10.0492 14.8705L10.0528 14.7828L10.0795 14.4038C10.0884 14.2744 10.1003 14.1452 10.1058 14.0155C10.1259 13.5495 10.1434 13.0836 10.1619 12.6177Z" fill="#409433"/>
<path fill-rule="evenodd" clip-rule="evenodd" d="M10.1619 12.6177C10.1434 13.0836 10.1259 13.5495 10.1061 14.0156C10.1006 14.1453 10.0887 14.2745 10.0798 14.4039L9.9603 14.4491C9.69483 13.6675 9.4292 12.8942 9.16936 12.1189C8.73967 10.8363 8.31514 9.55157 7.88608 8.2686C7.53953 7.23305 7.19057 6.1983 6.8392 5.16438C6.8228 5.11594 6.77561 5.07813 6.7428 5.03532L7.5078 3.62875C7.53405 3.67438 7.56874 3.71703 7.5853 3.7661C7.9396 4.8133 8.2921 5.86112 8.6428 6.90953C9.09842 8.2736 9.55124 9.63875 10.0065 11.003C10.0247 11.0575 10.0547 11.1078 10.0833 11.1689L10.188 11.047L10.1619 12.6177Z" fill="#4FAA41"/>
<path fill-rule="evenodd" clip-rule="evenodd" d="M6.74294 5.03546C6.77575 5.07827 6.82278 5.11609 6.83935 5.16452C7.19071 6.19845 7.53967 7.23319 7.88622 8.26874C8.31528 9.55171 8.73981 10.8364 9.1695 12.1191C9.42919 12.8942 9.69481 13.6676 9.96044 14.4492L10.08 14.4041L10.0533 14.7831L10.029 14.8705C9.98747 15.2855 9.95247 15.7014 9.90185 16.1155C9.87638 16.323 9.82231 16.5267 9.78122 16.7322C9.75028 16.6873 9.70685 16.6466 9.69013 16.5969C8.83591 14.0505 7.98419 11.5031 7.13138 8.95624C6.86007 8.14572 6.58704 7.33577 6.31231 6.5264C6.29841 6.48531 6.25919 6.45312 6.23169 6.41671L6.74294 5.03546Z" fill="#4AA73C"/>
<path fill-rule="evenodd" clip-rule="evenodd" d="M10.1878 11.0472L10.0832 11.1691C10.0546 11.108 10.0246 11.0575 10.0064 11.0031C9.55128 9.6389 9.09832 8.27374 8.64269 6.90968C8.29199 5.86126 7.93949 4.81345 7.58519 3.76624C7.56878 3.71718 7.5341 3.67437 7.50769 3.6289L8.45378 2.38437C8.48363 2.42421 8.52613 2.45968 8.5416 2.50452C8.80425 3.27343 9.06457 4.04327 9.32332 4.81359C9.56503 5.53296 9.80316 6.25343 10.0477 6.97187C10.0641 7.01999 10.1211 7.05406 10.1593 7.09468L10.1611 7.25796C10.1702 8.52077 10.1791 9.78406 10.1878 11.0472Z" fill="#57AE47"/>
<path fill-rule="evenodd" clip-rule="evenodd" d="M10.1596 7.09438C10.1214 7.05375 10.0644 7.01969 10.048 6.97156C9.80348 6.25313 9.56535 5.53266 9.32363 4.81328C9.06488 4.04297 8.80457 3.27328 8.54191 2.50422C8.52645 2.45938 8.48395 2.42391 8.4541 2.38406C8.76176 2.08281 9.05988 1.77078 9.37988 1.48344C9.66441 1.22813 9.89316 0.954377 9.90363 0.550939C9.9041 0.534221 9.91285 0.517502 9.92629 0.470627L10.0074 0.674689C10.0054 0.777971 9.99613 0.881252 10.0029 0.983908C10.0146 1.1625 10.0433 1.34016 10.0514 1.51875C10.0664 1.8511 10.0736 2.18406 10.0804 2.51688C10.0911 3.0525 10.101 3.58813 10.1077 4.12391C10.1182 4.97985 10.125 5.83578 10.1358 6.69172C10.1371 6.82625 10.1511 6.96016 10.1596 7.09438Z" fill="#60B24F"/>
<path fill-rule="evenodd" clip-rule="evenodd" d="M9.78096 16.732C9.82205 16.5266 9.87611 16.3227 9.90158 16.1153C9.95236 15.7014 9.98721 15.2853 10.0288 14.8703L10.0391 14.8687L10.0494 14.8705C10.06 15.3897 10.1332 15.9059 10.2672 16.4077C10.2397 16.4439 10.2008 16.4762 10.1863 16.5172C10.0727 16.8375 9.96564 17.1603 9.85143 17.4806C9.8358 17.5244 9.79236 17.5584 9.76174 17.5969L9.64502 17.1959L9.78096 16.732Z" fill="#A9AA88"/>
<path fill-rule="evenodd" clip-rule="evenodd" d="M9.76184 17.597C9.79247 17.5586 9.83606 17.5245 9.85153 17.4808C9.96575 17.1605 10.0729 16.8378 10.1864 16.5173C10.2009 16.4764 10.2397 16.4441 10.2673 16.4078L10.4634 16.8381C10.4247 16.8931 10.3712 16.9426 10.3497 17.0039L9.97403 18.1069C9.95856 18.1511 9.90575 18.1823 9.87043 18.2197L9.76184 17.597Z" fill="#B6B598"/>
<path fill-rule="evenodd" clip-rule="evenodd" d="M9.87048 18.2195C9.90595 18.1823 9.95861 18.1509 9.97408 18.1067L10.3497 17.0037C10.3711 16.9427 10.4247 16.893 10.4635 16.838L10.6533 17C10.5616 17.0906 10.5106 17.1953 10.5413 17.3277L10.4836 17.5164C10.4574 17.5487 10.4194 17.5769 10.4064 17.6139C10.2753 17.9894 10.1502 18.3669 10.0181 18.7423C10.0014 18.79 9.95501 18.8273 9.9222 18.8692C9.90517 18.6525 9.88783 18.4362 9.87048 18.2195Z" fill="#C2C1A7"/>
<path fill-rule="evenodd" clip-rule="evenodd" d="M9.92231 18.8692C9.95497 18.8272 10.0014 18.7898 10.0182 18.7423C10.1503 18.367 10.2754 17.9895 10.4065 17.6139C10.4195 17.577 10.4573 17.5487 10.4837 17.5164L10.4042 18.3828C10.3829 18.4073 10.3522 18.4287 10.342 18.4573C10.2522 18.7095 10.1675 18.9636 10.0773 19.2158C10.0587 19.2678 10.0231 19.3137 9.99528 19.3623C9.97059 19.33 9.92637 19.2987 9.92434 19.265C9.91637 19.1336 9.92184 19.0012 9.92231 18.8692Z" fill="#CECDB7"/>
<path fill-rule="evenodd" clip-rule="evenodd" d="M9.99512 19.3623C10.0229 19.3136 10.0586 19.2677 10.0771 19.2158C10.1675 18.9638 10.252 18.7097 10.3418 18.4573C10.352 18.4287 10.3829 18.4075 10.404 18.3828L10.4059 18.9516L10.2156 19.4397L9.99512 19.3623Z" fill="#DBDAC7"/>
<path fill-rule="evenodd" clip-rule="evenodd" d="M10.2156 19.4398L10.4059 18.9517L10.4451 19.5292L10.2156 19.4398Z" fill="#EBE9DC"/>
<path fill-rule="evenodd" clip-rule="evenodd" d="M10.5413 17.3278C10.5107 17.1955 10.5614 17.0906 10.6533 17.0002L10.706 17.0361L10.5413 17.3278Z" fill="#CECDB7"/>
<path fill-rule="evenodd" clip-rule="evenodd" d="M10.0494 14.8706L10.0391 14.8689L10.0288 14.8705L10.053 14.7831L10.0494 14.8706Z" fill="#4FAA41"/>
</svg>
