<svg width="20" height="20" viewBox="0 0 20 20" fill="none" xmlns="http://www.w3.org/2000/svg">
<path d="M14.6577 14.3925C14.7803 13.3717 14.7436 13.2219 15.5039 13.3873L15.6969 13.4042C16.2816 13.4308 17.0464 13.3102 17.4958 13.1014C18.4631 12.6525 19.0366 11.9033 18.083 12.1C15.9074 12.5489 15.7578 11.8122 15.7578 11.8122C18.0552 8.40359 19.0155 4.07656 18.1864 3.01734C15.9255 0.128434 12.0119 1.49453 11.9464 1.52984L11.9255 1.53375C11.4956 1.44453 11.0146 1.39125 10.4741 1.3825C9.48955 1.36625 8.74252 1.64062 8.1758 2.07031C8.1758 2.07031 1.19408 -0.806098 1.51893 5.68765C1.58799 7.06906 3.49893 16.1405 5.7783 13.4005C6.61143 12.3986 7.41643 11.5514 7.41643 11.5514C7.81612 11.8169 8.29487 11.9525 8.79674 11.9037L8.83565 11.8706C8.82346 11.995 8.82877 12.1167 8.85112 12.2608C8.26408 12.9169 8.43658 13.032 7.26268 13.2736C6.07487 13.5183 6.77268 13.9541 7.22815 14.068C7.78049 14.2061 9.05815 14.4017 9.92159 13.1933L9.88721 13.3311C10.1175 13.5155 10.1021 14.6556 10.1346 15.4702C10.1672 16.2848 10.2217 17.045 10.3878 17.4933C10.5539 17.9414 10.7499 19.0958 12.2927 18.7652C13.5821 18.4895 14.5678 18.0919 14.6577 14.3925Z" fill="black"/>
<path d="M11.7904 19.5713C11.108 19.5713 10.6636 19.3073 10.3938 19.0525C9.98645 18.6681 9.82489 18.173 9.72833 17.8772L9.68661 17.7538C9.49224 17.2291 9.4263 16.4736 9.38723 15.5008C9.3813 15.3547 9.37723 15.2042 9.3727 15.0447C9.36942 14.928 9.36536 14.7816 9.35942 14.6284C9.11359 14.7457 8.85266 14.8281 8.58411 14.8734C8.10302 14.9556 7.58583 14.9291 7.04661 14.7942C6.66614 14.6991 6.27083 14.5019 6.04552 14.1973C5.3888 14.7725 4.76239 14.6945 4.42114 14.5806C3.81911 14.3798 3.28036 13.8156 2.77395 12.8561C2.41317 12.1725 2.06427 11.2819 1.73677 10.2088C1.16645 8.34 0.804111 6.37172 0.771923 5.72547C0.670673 3.70281 1.2152 2.25625 2.39005 1.42641C4.24333 0.117345 7.0513 0.887189 8.07505 1.23672C8.76286 0.822189 9.57208 0.62047 10.4865 0.635001C10.9775 0.64297 11.4452 0.686095 11.8796 0.763595C12.3327 0.621095 13.2277 0.416564 14.2522 0.429376C16.1399 0.451876 17.7041 1.1875 18.7755 2.55672C19.5402 3.5336 19.1621 5.585 18.8688 6.72094C18.456 8.31875 17.7327 10.0181 16.8443 11.4975C17.0855 11.4992 17.435 11.4703 17.9319 11.3677C18.9122 11.1653 19.199 11.6909 19.2768 11.9263C19.5885 12.8703 18.2335 13.5838 17.8108 13.78C17.2693 14.0314 16.3863 14.1845 15.6632 14.1514L15.6316 14.1494L15.4416 14.1327L15.4229 14.2911L15.4047 14.4459C15.3561 16.3208 15.0883 17.5081 14.5372 18.2927C13.9596 19.1152 13.1568 19.3456 12.4496 19.4972C12.2083 19.5488 11.9891 19.5713 11.7904 19.5713ZM10.3544 12.7477C10.7949 13.1002 10.8335 13.7634 10.868 15.003C10.8724 15.1577 10.8765 15.3041 10.8819 15.4408C10.8985 15.8548 10.9374 16.8244 11.0893 17.2341C11.1107 17.292 11.1299 17.3508 11.1502 17.4131C11.3194 17.9313 11.4043 18.1911 12.136 18.0347C12.7502 17.903 13.066 17.7848 13.3132 17.433C13.6724 16.9214 13.8733 15.8923 13.9102 14.3744L14.6575 14.3925L13.9154 14.3034L13.9372 14.1181C14.0083 13.5072 14.0596 13.0659 14.4679 12.7741C14.7955 12.54 15.1688 12.5627 15.4661 12.6163C15.1394 12.3694 15.0491 12.0798 15.025 11.9611L14.9627 11.6541L15.1379 11.3942C16.1468 9.89735 16.9786 8.05766 17.4205 6.34672C17.8746 4.58875 17.7361 3.65516 17.5977 3.4786C15.765 1.13688 12.5871 2.10375 12.2552 2.21344L12.1991 2.24375L11.9179 2.2961L11.7738 2.26625C11.3766 2.18375 10.9354 2.13813 10.4624 2.13047C9.71927 2.11797 9.11973 2.2936 8.62817 2.66656L8.28708 2.92516L7.8913 2.76219C7.04567 2.41641 4.56192 1.72125 3.2513 2.64953C2.5238 3.16485 2.19239 4.17453 2.26614 5.65063C2.29052 6.13797 2.62161 7.98281 3.16786 9.77203C3.9227 12.2447 4.60864 13.0661 4.89505 13.1616C4.94505 13.1784 5.07474 13.0777 5.2038 12.9227C5.74193 12.2776 6.29915 11.6486 6.87474 11.0367L7.30755 10.5813L7.83083 10.9289C8.04177 11.0691 8.27442 11.1486 8.51333 11.1636L9.7613 10.0992L9.58052 11.9442C9.57645 11.9856 9.57442 12.042 9.59067 12.1467L9.64505 12.4964L9.40911 12.7602L9.38192 12.7908L10.0675 13.1072L10.3544 12.7477Z" fill="black"/>
<path d="M18.083 12.1C15.9072 12.5489 15.7576 11.8122 15.7576 11.8122C18.055 8.40344 19.0153 4.07626 18.1866 3.01735C15.9256 0.128599 12.0117 1.49469 11.9464 1.53016L11.9253 1.53391C11.4955 1.44469 11.0144 1.39157 10.4736 1.38282C9.48905 1.36672 8.74234 1.64094 8.17562 2.07063C8.17562 2.07063 1.19374 -0.805619 1.51843 5.68797C1.58749 7.06954 3.49843 16.1409 5.7778 13.4009C6.61093 12.3991 7.41577 11.5519 7.41577 11.5519C7.81562 11.8173 8.29421 11.953 8.79593 11.9042L8.83499 11.8711C8.8228 11.9955 8.82843 12.1172 8.85062 12.2613C8.26343 12.9173 8.43593 13.0325 7.26202 13.2741C6.07421 13.5188 6.77202 13.9545 7.22765 14.0684C7.77984 14.2066 9.05765 14.4022 9.92093 13.1938L9.8864 13.3316C10.1166 13.5159 10.2781 14.5303 10.2511 15.4498C10.2239 16.3694 10.2058 17.0008 10.3872 17.4939C10.5684 17.987 10.7491 19.0964 12.2922 18.7658C13.5816 18.4895 14.2497 17.7734 14.3428 16.5791C14.4087 15.7298 14.558 15.8555 14.5675 15.0963L14.6873 14.7369C14.8255 13.5858 14.7092 13.2145 15.5037 13.3872L15.6967 13.4041C16.2814 13.4306 17.0466 13.31 17.4958 13.1013C18.463 12.6527 19.0366 11.9033 18.083 12.1Z" fill="#336791"/>
<path d="M11.8682 19.1105C10.582 19.1105 10.1745 18.0919 10.0078 17.6753C9.76371 17.0648 9.71106 14.6958 9.76543 12.753C9.76624 12.7202 9.77352 12.6879 9.78686 12.658C9.8002 12.6281 9.81933 12.6011 9.84315 12.5785C9.86697 12.556 9.895 12.5385 9.92564 12.5268C9.95629 12.5152 9.98892 12.5097 10.0217 12.5108C10.0544 12.5117 10.0866 12.519 10.1165 12.5324C10.1464 12.5457 10.1734 12.5648 10.1959 12.5886C10.2184 12.6124 10.2359 12.6404 10.2476 12.671C10.2593 12.7016 10.2648 12.7342 10.2639 12.7669C10.2012 15.0077 10.2901 17.0383 10.4707 17.4902C10.7526 18.1947 11.1801 18.8109 12.3887 18.552C13.5361 18.3059 13.9657 17.8709 14.1572 16.7614C14.304 15.91 14.5945 13.4878 14.6303 13.0098C14.6327 12.9772 14.6415 12.9453 14.6562 12.9161C14.6709 12.8868 14.6913 12.8608 14.7161 12.8394C14.741 12.818 14.7697 12.8018 14.8009 12.7915C14.832 12.7813 14.8648 12.7774 14.8975 12.7798C14.9634 12.7848 15.0246 12.8158 15.0677 12.8659C15.1108 12.916 15.1323 12.9811 15.1275 13.047C15.0901 13.5447 14.8011 15.9622 14.6486 16.8463C14.4226 18.1567 13.8384 18.7511 12.4932 19.0395C12.2647 19.0884 12.057 19.1103 11.8682 19.1105ZM4.89387 14.1353C4.78144 14.1349 4.66981 14.1165 4.56324 14.0806C3.72778 13.8019 2.93199 12.4413 2.19793 10.0361C1.63918 8.20531 1.28512 6.29437 1.25403 5.67328C1.16199 3.83203 1.63606 2.52937 2.6634 1.80172C4.69574 0.361719 8.11465 1.73297 8.25918 1.79203C8.32041 1.81704 8.3692 1.86535 8.39481 1.92633C8.42042 1.9873 8.42075 2.05596 8.39575 2.11719C8.37074 2.17842 8.32243 2.2272 8.26145 2.25281C8.20047 2.27842 8.13182 2.27876 8.07059 2.25375C8.03762 2.24031 4.75918 0.926875 2.95059 2.20922C2.07215 2.83203 1.66887 3.98922 1.75184 5.64844C1.77793 6.17172 2.10871 8.03672 2.67465 9.89047C3.32996 12.0377 4.07574 13.3925 4.7209 13.6077C4.82215 13.6414 5.13028 13.7441 5.57074 13.2144C6.08441 12.5975 6.61733 11.9969 7.16871 11.4134C7.21485 11.3674 7.27717 11.3413 7.34233 11.3406C7.40749 11.34 7.47032 11.3649 7.51737 11.41C7.56441 11.455 7.59194 11.5168 7.59406 11.5819C7.59619 11.647 7.57273 11.7104 7.52871 11.7584C7.52121 11.7663 6.77137 12.5502 5.95418 13.5333C5.56715 13.9988 5.19621 14.1353 4.89387 14.1353ZM15.7422 12.0345C15.697 12.0345 15.6526 12.0221 15.6139 11.9988C15.5752 11.9755 15.5435 11.9421 15.5223 11.9022C15.5011 11.8623 15.4911 11.8174 15.4934 11.7722C15.4958 11.7271 15.5104 11.6834 15.5356 11.6459C17.8579 8.19984 18.6731 4.03594 17.975 3.14375C17.0962 2.02094 15.8554 1.43453 14.2868 1.40062C13.1254 1.37562 12.2023 1.67219 12.0514 1.72391L12.0134 1.73937C11.8617 1.78703 11.7453 1.70391 11.7014 1.60672C11.6763 1.55104 11.6725 1.48812 11.6907 1.42983C11.7089 1.37154 11.7477 1.32192 11.8 1.29031C11.8072 1.28609 11.83 1.27641 11.867 1.26281L11.8637 1.26375L11.867 1.26266C12.1234 1.16875 13.0606 0.887656 14.2214 0.900937C15.957 0.919375 17.3907 1.58859 18.3673 2.83656C18.8293 3.42703 18.8304 4.78734 18.3703 6.56891C17.9012 8.38531 17.0186 10.3373 15.9489 11.9247C15.9011 11.9961 15.8223 12.0345 15.7422 12.0345ZM15.8609 13.6298C15.4643 13.6298 15.1089 13.5739 14.8961 13.4464C14.6773 13.3153 14.6356 13.1372 14.6301 13.0427C14.5704 11.9942 15.1489 11.8117 15.4439 11.7284C15.4028 11.6663 15.3443 11.5931 15.2839 11.5177C15.1118 11.3027 14.8762 11.0083 14.6947 10.568C14.6662 10.4992 14.5772 10.3394 14.474 10.1542C13.9148 9.15141 12.7512 7.06469 13.4987 5.99609C13.8447 5.50156 14.5336 5.30688 15.5486 5.41547C15.25 4.50578 13.8281 1.66016 10.4542 1.60484C9.43949 1.58797 8.60731 1.9 7.98199 2.53141C6.58199 3.94531 6.63262 6.50359 6.6334 6.52922C6.63426 6.56195 6.62867 6.59452 6.61694 6.62509C6.60521 6.65566 6.58758 6.68361 6.56505 6.70737C6.54251 6.73112 6.51552 6.7502 6.48562 6.76352C6.45571 6.77684 6.42347 6.78414 6.39075 6.785C6.35802 6.78586 6.32544 6.78027 6.29487 6.76854C6.26431 6.75681 6.23635 6.73918 6.2126 6.71665C6.18885 6.69411 6.16977 6.66712 6.15645 6.63722C6.14313 6.60731 6.13583 6.57507 6.13496 6.54234C6.13184 6.42875 6.07965 3.74406 7.62778 2.18047C8.35231 1.44875 9.30606 1.0875 10.4625 1.10641C12.6209 1.14187 14.0103 2.23922 14.7956 3.15344C15.6517 4.14984 16.0714 5.24891 16.1059 5.61578C16.1317 5.88859 15.9359 5.94313 15.8964 5.95125L15.8064 5.95328C14.8103 5.79375 14.1712 5.90453 13.907 6.28203C13.3384 7.09469 14.4392 9.06859 14.9092 9.91156C15.0292 10.1266 15.1157 10.282 15.1554 10.378C15.3098 10.7523 15.5112 11.0039 15.6729 11.2061C15.8153 11.3839 15.9386 11.5381 15.9826 11.7191C16.0031 11.755 16.2936 12.1847 18.0172 11.8289C18.4492 11.7398 18.7082 11.8159 18.7875 12.0555C18.9432 12.5266 18.0692 13.0761 17.5853 13.3008C17.1517 13.5023 16.4597 13.6298 15.8609 13.6298ZM15.1272 13.0016C15.1818 13.0567 15.4554 13.1519 16.022 13.1275C16.5257 13.1059 17.057 12.9964 17.3757 12.8484C17.7834 12.6591 18.0556 12.4473 18.1965 12.3028L18.1184 12.3172C17.0164 12.5447 16.2368 12.5144 15.8015 12.227C15.7723 12.2077 15.7441 12.1868 15.7172 12.1644C15.67 12.183 15.6264 12.1952 15.5953 12.2039C15.3484 12.2731 15.0931 12.3448 15.1272 13.0016ZM8.00809 14.3945C7.73434 14.3945 7.44621 14.3572 7.15199 14.2836C6.84715 14.2073 6.33324 13.9778 6.34106 13.6008C6.34996 13.1778 6.96512 13.0509 7.19668 13.0033C8.03324 12.8309 8.08778 12.7619 8.34918 12.4298C8.42543 12.3331 8.52028 12.2127 8.64965 12.0683C8.84168 11.8533 9.05153 11.7444 9.2734 11.7444C9.42793 11.7444 9.55465 11.7967 9.6384 11.8316C9.90528 11.9422 10.1279 12.2097 10.2195 12.5295C10.3022 12.8181 10.2626 13.0959 10.1086 13.3117C9.60278 14.02 8.87637 14.3945 8.00809 14.3945ZM6.87965 13.6222C6.95481 13.6803 7.10543 13.758 7.27309 13.7998C7.52793 13.8636 7.77512 13.8959 8.00824 13.8959C8.71856 13.8959 9.28887 13.6019 9.70309 13.0219C9.78949 12.9009 9.76356 12.7473 9.74043 12.6666C9.69199 12.4973 9.57168 12.3434 9.44778 12.292C9.38059 12.2642 9.32481 12.243 9.27356 12.243C9.24606 12.243 9.16231 12.243 9.02137 12.4006C8.92411 12.51 8.83062 12.6227 8.74106 12.7384C8.41543 13.1519 8.26621 13.2922 7.29746 13.4917C7.06106 13.5402 6.93981 13.5895 6.87965 13.6222ZM8.79668 12.4722C8.73716 12.4721 8.67964 12.4507 8.63451 12.4119C8.58938 12.3731 8.55961 12.3195 8.55059 12.2606C8.54439 12.2192 8.54022 12.1776 8.53809 12.1358C7.90309 12.1239 7.29043 11.8514 6.82528 11.3661C6.23715 10.7525 5.96949 9.90234 6.09106 9.03375C6.22309 8.09047 6.17371 7.25781 6.14715 6.81047C6.13981 6.68609 6.13449 6.59625 6.13481 6.53406C6.13528 6.45516 6.13684 6.24594 6.83621 5.89141C7.08496 5.76531 7.58371 5.54531 8.12856 5.48891C9.03121 5.39563 9.62621 5.79766 9.80434 6.62109C10.2851 8.84422 9.84246 9.8275 9.51918 10.5456C9.45903 10.6794 9.40215 10.8056 9.35668 10.928L9.31653 11.0358C9.14574 11.4938 8.99809 11.8894 9.0434 12.1848C9.04838 12.2172 9.04693 12.2502 9.03914 12.282C9.03134 12.3138 9.01736 12.3438 8.99799 12.3702C8.97862 12.3966 8.95424 12.4189 8.92624 12.4359C8.89824 12.4528 8.86717 12.4641 8.83481 12.4691L8.79668 12.4722ZM6.63496 6.60313L6.64465 6.78109C6.67215 7.24578 6.7234 8.11047 6.58465 9.10297C6.48449 9.81938 6.70324 10.5186 7.18512 11.0211C7.5659 11.4183 8.06699 11.6375 8.58199 11.6375H8.59262C8.65028 11.3945 8.74606 11.138 8.84918 10.8616L8.88903 10.7544C8.94043 10.6163 9.00059 10.4825 9.06434 10.3409C9.37543 9.64969 9.76278 8.78922 9.31668 6.72656C9.2284 6.31797 9.01418 6.08156 8.66215 6.00359C7.93903 5.84391 6.86137 6.38781 6.63496 6.60313ZM8.13965 6.49734C8.12715 6.58547 8.30106 6.82078 8.52793 6.85219C8.75434 6.88391 8.94809 6.69984 8.96043 6.61172C8.97278 6.52359 8.79903 6.42641 8.57215 6.39484C8.34543 6.36328 8.15168 6.40922 8.13965 6.49734ZM8.57996 6.93891L8.51637 6.93453C8.37574 6.915 8.23356 6.82641 8.13621 6.69734C8.10199 6.65203 8.04621 6.56422 8.05731 6.48578C8.07309 6.37078 8.2134 6.30188 8.43231 6.30188C8.48121 6.30188 8.53215 6.30547 8.5834 6.31266C8.70309 6.32922 8.81418 6.36375 8.89621 6.40953C9.0384 6.48891 9.04887 6.5775 9.04246 6.62328C9.02496 6.75031 8.82293 6.93891 8.57996 6.93891ZM8.22231 6.51203C8.22934 6.56641 8.36403 6.74578 8.53934 6.77L8.58012 6.77281C8.74199 6.77281 8.86293 6.64547 8.87715 6.60375C8.86215 6.57531 8.75809 6.50469 8.56075 6.47719C8.51826 6.47109 8.47539 6.46801 8.43246 6.46797C8.30559 6.46797 8.23825 6.49656 8.22231 6.51203ZM15.0356 6.3175C15.0479 6.40562 14.8742 6.64094 14.6475 6.6725C14.4209 6.70406 14.227 6.52016 14.2145 6.43203C14.2026 6.34391 14.3764 6.24656 14.6029 6.21516C14.8295 6.18344 15.0231 6.22953 15.0356 6.3175ZM14.5951 6.7175C14.377 6.7175 14.1887 6.54781 14.1732 6.43766C14.1553 6.30547 14.3729 6.205 14.597 6.17391C14.6464 6.16703 14.6953 6.16359 14.7423 6.16359C14.9357 6.16359 15.0639 6.22031 15.0767 6.31188C15.085 6.37109 15.0395 6.4625 14.9612 6.545C14.9095 6.59922 14.8009 6.69313 14.6529 6.71359L14.5951 6.7175ZM14.7425 6.24672C14.6993 6.24672 14.6543 6.25 14.6087 6.25625C14.3836 6.28766 14.2492 6.37797 14.2557 6.42641C14.2632 6.47969 14.407 6.63453 14.5953 6.63453L14.6417 6.63125C14.7647 6.61422 14.857 6.53391 14.9011 6.48766C14.9703 6.415 14.9978 6.34656 14.9945 6.32328C14.9901 6.29234 14.907 6.24672 14.7425 6.24672ZM15.362 11.3784C15.3168 11.3785 15.2725 11.3662 15.2338 11.343C15.195 11.3197 15.1633 11.2864 15.1421 11.2466C15.1208 11.2067 15.1108 11.1618 15.1131 11.1167C15.1154 11.0716 15.1299 11.028 15.1551 10.9905C15.6861 10.1975 15.5889 9.38891 15.495 8.60688C15.4548 8.27375 15.4136 7.92922 15.4242 7.59859C15.4351 7.25844 15.4784 6.97781 15.5201 6.70641C15.5697 6.38484 15.6165 6.08109 15.5972 5.72047C15.5954 5.68778 15.6001 5.65507 15.611 5.62419C15.6218 5.59332 15.6387 5.56489 15.6606 5.54053C15.6824 5.51617 15.7089 5.49635 15.7384 5.48221C15.7679 5.46808 15.7999 5.45989 15.8326 5.45813C15.8653 5.45636 15.898 5.46105 15.9289 5.47193C15.9598 5.48281 15.9882 5.49966 16.0126 5.52153C16.0369 5.54339 16.0567 5.56984 16.0709 5.59936C16.085 5.62889 16.0932 5.66091 16.095 5.69359C16.1172 6.10578 16.0642 6.44953 16.0129 6.78219C15.9734 7.03891 15.9325 7.30438 15.9226 7.61453C15.9131 7.90734 15.9504 8.21828 15.99 8.54734C16.09 9.37891 16.2032 10.3214 15.5695 11.2678C15.5467 11.3019 15.5158 11.3298 15.4796 11.3491C15.4434 11.3684 15.403 11.3785 15.362 11.3784Z" fill="white"/>
</svg>
