<svg width="20" height="20" viewBox="0 0 20 20" fill="none" xmlns="http://www.w3.org/2000/svg">
<path d="M9.90488 1.91374C9.24519 1.91687 8.6155 1.97296 8.06113 2.07109C6.42831 2.35953 6.13206 2.96328 6.13206 4.07687V5.54734H9.99034V6.03749H4.68394C3.56269 6.03749 2.58081 6.7114 2.27363 7.9939C1.91925 9.46343 1.90363 10.3806 2.27363 11.9152C2.54784 13.0575 3.20284 13.8712 4.32425 13.8712H5.65097V12.1084C5.65097 10.8348 6.75269 9.71156 8.06128 9.71156H11.9152C12.988 9.71156 13.8443 8.82812 13.8443 7.75093V4.07703C13.8443 3.03124 12.9621 2.24578 11.9152 2.07124C11.2521 1.96093 10.5644 1.91078 9.90488 1.91374ZM7.81831 3.0964C8.21675 3.0964 8.54238 3.42718 8.54238 3.83406C8.54238 4.23921 8.21691 4.56687 7.81831 4.56687C7.41831 4.56687 7.09441 4.23921 7.09441 3.83406C7.09425 3.42718 7.41831 3.0964 7.81831 3.0964Z" fill="url(#paint0_linear_304_1135)"/>
<path d="M14.3254 6.03749V7.75093C14.3254 9.07906 13.1991 10.197 11.915 10.197H8.06114C7.00552 10.197 6.13208 11.1006 6.13208 12.1578V15.832C6.13208 16.8775 7.04114 17.4927 8.06114 17.7925C9.28239 18.1514 10.4536 18.2164 11.915 17.7925C12.8863 17.5111 13.8441 16.9452 13.8441 15.832V14.3614H9.99036V13.8711H15.7735C16.8947 13.8711 17.3129 13.0891 17.7029 11.915C18.1057 10.7064 18.0883 9.54406 17.7029 7.99374C17.4257 6.87734 16.8965 6.03734 15.7735 6.03734H14.3254V6.03749ZM12.1577 15.3417C12.5579 15.3417 12.8818 15.6694 12.8818 16.0748C12.8818 16.4814 12.5577 16.8122 12.1577 16.8122C11.7593 16.8122 11.4338 16.4814 11.4338 16.0748C11.4338 15.6694 11.7593 15.3417 12.1577 15.3417Z" fill="url(#paint1_linear_304_1135)"/>
<path opacity="0.444" d="M15.2045 18.687C15.2045 19.2406 12.8895 19.6895 10.034 19.6895C7.1784 19.6895 4.8634 19.2406 4.8634 18.687C4.8634 18.1333 7.17825 17.6844 10.034 17.6844C12.8895 17.6844 15.2045 18.1331 15.2045 18.687Z" fill="url(#paint2_radial_304_1135)"/>
<defs>
<linearGradient id="paint0_linear_304_1135" x1="1.61517" y1="2.37353" x2="10.5142" y2="9.96257" gradientUnits="userSpaceOnUse">
<stop stop-color="#5A9FD4"/>
<stop offset="1" stop-color="#306998"/>
</linearGradient>
<linearGradient id="paint1_linear_304_1135" x1="13.8624" y1="14.6801" x2="10.671" y2="10.2047" gradientUnits="userSpaceOnUse">
<stop stop-color="#FFD43B"/>
<stop offset="1" stop-color="#FFE873"/>
</linearGradient>
<radialGradient id="paint2_radial_304_1135" cx="0" cy="0" r="1" gradientUnits="userSpaceOnUse" gradientTransform="translate(10.0131 18.6583) rotate(-90) scale(1.00286 4.40842)">
<stop stop-color="#B8B8B8" stop-opacity="0.498"/>
<stop offset="1" stop-color="#7F7F7F" stop-opacity="0"/>
</radialGradient>
</defs>
</svg>
