<svg width="24" height="24" viewBox="0 0 24 24" fill="none" xmlns="http://www.w3.org/2000/svg">
<path fill-rule="evenodd" clip-rule="evenodd" d="M11.6758 2.04C11.6404 2.06063 11.4917 2.274 11.3452 2.51419C10.9777 3.11738 10.9736 3.11775 10.4799 2.59819C10.1587 2.26031 10.0811 2.19844 9.97762 2.19919C9.91031 2.19956 9.82537 2.22244 9.78862 2.25C9.75206 2.27756 9.64837 2.49694 9.55837 2.7375C9.35231 3.28856 9.34237 3.30638 9.22818 3.32831C9.15787 3.34163 9.02249 3.26625 8.69793 3.03319C8.45831 2.86088 8.22318 2.72006 8.17556 2.72006C7.97793 2.72006 7.92224 2.82806 7.82812 3.39375C7.70849 4.113 7.71262 4.11056 7.06424 3.816C6.80249 3.69731 6.55424 3.6 6.51243 3.6C6.47062 3.6 6.3913 3.645 6.33637 3.69994C6.23662 3.79988 6.23643 3.80025 6.26362 4.35019L6.29099 4.90069L6.18693 4.95638C6.09468 5.00569 6.03112 4.99969 5.62274 4.90313C5.08968 4.77731 4.97718 4.78069 4.86918 4.926L4.79024 5.03213L4.89618 5.48606C4.95431 5.73563 5.01037 5.976 5.02087 6.02006C5.03118 6.06394 5.01337 6.13425 4.98112 6.17606C4.92787 6.24488 4.87124 6.25106 4.37793 6.24356C3.54299 6.23044 3.49556 6.30206 3.84056 7.05506C3.95024 7.29413 4.04006 7.51125 4.04006 7.53731C4.04006 7.67494 3.93037 7.725 3.45918 7.80188C3.19556 7.84481 2.96643 7.88006 2.94993 7.88006C2.93343 7.88006 2.88393 7.91606 2.84006 7.95994C2.69662 8.10338 2.73731 8.238 3.06262 8.69719C3.46781 9.26906 3.46706 9.27113 2.79768 9.52725C2.03643 9.81844 2.02106 9.89025 2.60062 10.44C3.14043 10.9519 3.14099 10.9444 2.52993 11.3286C2.06699 11.6194 2.05987 11.6263 2.04806 11.784C2.03381 11.9758 2.03718 11.9792 2.58993 12.3169C3.13649 12.6506 3.13649 12.6608 2.60006 13.1683C2.02312 13.7139 2.04093 13.7936 2.80274 14.0811C3.46837 14.3321 3.46931 14.3351 3.06337 14.907C2.83331 15.2312 2.75999 15.3662 2.75999 15.4663C2.75999 15.6536 2.85749 15.7014 3.44006 15.7993C3.93074 15.882 4.04006 15.9306 4.04006 16.0659C4.04006 16.0937 3.95006 16.3127 3.83999 16.5523C3.49762 17.298 3.53662 17.3601 4.34699 17.3601C5.10168 17.3601 5.08162 17.337 4.91906 18.0176C4.79643 18.5306 4.79456 18.6289 4.90556 18.7397C4.99049 18.8248 5.15062 18.8153 5.65143 18.6954C6.03393 18.6041 6.10106 18.5977 6.18974 18.6452L6.29099 18.6994L6.26362 19.2497C6.23643 19.7998 6.23662 19.8002 6.33637 19.9001C6.3913 19.9551 6.47174 20.0001 6.51487 20.0001C6.55799 20.0001 6.80624 19.9033 7.06668 19.785C7.71299 19.4916 7.70887 19.4891 7.82812 20.2061C7.92262 20.7744 7.97774 20.88 8.17949 20.88C8.22956 20.88 8.45962 20.745 8.69099 20.58C9.09731 20.2901 9.20268 20.2447 9.31087 20.3136C9.33881 20.3312 9.44718 20.5693 9.55162 20.8427C9.70518 21.2447 9.76143 21.3493 9.84693 21.3902C10.0097 21.4682 10.1104 21.4056 10.4929 20.9889C10.9547 20.4859 10.9736 20.4883 11.3507 21.0994C11.7671 21.774 11.8749 21.7725 12.3019 21.0857C12.6697 20.4939 12.6654 20.4943 13.1627 21.0137C13.4929 21.3583 13.5632 21.4132 13.6746 21.4132C13.7456 21.4132 13.8306 21.3866 13.863 21.354C13.8956 21.3214 14.0036 21.0804 14.103 20.8187C14.2024 20.5567 14.3053 20.3288 14.3319 20.3119C14.4371 20.2449 14.5461 20.292 14.9518 20.58C15.1907 20.7497 15.4155 20.88 15.4689 20.88C15.6673 20.88 15.7389 20.7392 15.8214 20.1857C15.8919 19.7137 15.9062 19.6686 15.999 19.6215C16.0903 19.5752 16.1451 19.5908 16.5733 19.7852C16.8337 19.9033 17.082 20.0001 17.1251 20.0001C17.1682 20.0001 17.25 19.9537 17.3064 19.8971L17.4094 19.7944L17.3811 19.2666C17.3541 18.7626 17.3565 18.7356 17.4369 18.6628C17.5196 18.588 17.5281 18.5884 17.9904 18.6939C18.5503 18.8218 18.6547 18.8252 18.7599 18.72C18.8627 18.6172 18.8616 18.5948 18.7209 18.0017C18.5632 17.3364 18.5421 17.3601 19.2999 17.3601C19.8165 17.3601 19.8741 17.3528 19.9399 17.2802C20.0497 17.1587 20.0237 17.0196 19.8026 16.5484C19.6911 16.311 19.6005 16.095 19.6012 16.0684C19.605 15.9283 19.7151 15.8805 20.2237 15.7978C20.535 15.7474 20.7679 15.6889 20.8101 15.6508C20.9514 15.5231 20.8995 15.357 20.5768 14.9046C20.1724 14.3376 20.1741 14.3321 20.8217 14.0934C21.5972 13.8077 21.6193 13.7124 21.039 13.161C20.5014 12.6503 20.5012 12.6531 21.09 12.2916C21.8017 11.8547 21.8029 11.7563 21.1026 11.3216C20.5003 10.9479 20.5007 10.9532 21.0405 10.4406C21.6195 9.89044 21.6037 9.81844 20.8423 9.52725C20.1703 9.27019 20.1682 9.26381 20.5766 8.70337C20.8198 8.36963 20.88 8.25881 20.88 8.14444C20.88 7.94456 20.7904 7.89975 20.2009 7.8045C19.7083 7.725 19.5999 7.67663 19.5999 7.53656C19.5999 7.50994 19.6899 7.29563 19.8 7.05994C20.0154 6.5985 20.0456 6.41381 19.9237 6.30338C19.8583 6.24413 19.7706 6.23569 19.3011 6.24338C18.8098 6.25163 18.747 6.24469 18.6789 6.17625C18.6045 6.10144 18.6052 6.09094 18.7215 5.60588C18.864 5.0115 18.8646 4.99706 18.7474 4.887C18.6285 4.77525 18.5542 4.77713 18.0084 4.90556C17.6107 4.99931 17.5449 5.0055 17.4546 4.95713L17.352 4.90219L17.3803 4.35356L17.4088 3.80513L17.3062 3.70256C17.2498 3.64613 17.1697 3.6 17.1281 3.6C17.0867 3.6 16.8397 3.69806 16.5795 3.81769C16.1449 4.01775 16.0982 4.03106 16.0042 3.98194C15.9105 3.93281 15.8949 3.88444 15.8149 3.39563C15.7224 2.83013 15.6652 2.72006 15.4644 2.72006C15.4168 2.72006 15.1807 2.86163 14.9398 3.03469C14.5442 3.31894 14.4911 3.34575 14.3925 3.31144C14.3109 3.28294 14.2635 3.22088 14.2056 3.06656C14.1626 2.95294 14.0805 2.73394 14.0227 2.58C13.9061 2.2695 13.8411 2.19994 13.6663 2.19994C13.5688 2.19994 13.4805 2.27006 13.164 2.59875C12.6666 3.1155 12.6647 3.11531 12.2989 2.51531C12.1526 2.2755 11.9998 2.06138 11.9591 2.03963C11.8676 1.9905 11.76 1.99069 11.6758 2.04ZM12.1292 3.84656C12.5625 4.155 12.3321 4.88006 11.8007 4.88006C11.2851 4.88006 11.0254 4.25888 11.3936 3.90619C11.6014 3.70706 11.8993 3.68288 12.1292 3.84656ZM11.5843 5.76169C11.8684 5.86969 11.985 5.80481 12.6336 5.17969L13.1209 4.70981L13.3271 4.73719C13.974 4.82306 15.2606 5.38819 15.9999 5.91113C16.6792 6.39188 17.5821 7.371 17.9668 8.04431L18.0491 8.1885L17.6846 9.00975C17.484 9.46144 17.3199 9.87844 17.3199 9.93675C17.3199 10.0712 17.4081 10.2838 17.493 10.3541C17.5288 10.3839 17.8691 10.5478 18.2492 10.7183L18.9399 11.0284L18.9671 11.2041C19.0022 11.433 19.0069 11.9953 18.975 12.1551L18.9501 12.2799H18.5557C18.0984 12.2799 18.1337 12.2391 18.1089 12.8001C18.0909 13.2067 17.9927 13.4316 17.7692 13.5771C17.4051 13.8146 16.8037 13.7715 16.5487 13.4897C16.5096 13.4464 16.4334 13.2287 16.3794 13.0057C16.2217 12.3546 16.0099 11.9889 15.5842 11.6332C15.4498 11.5209 15.3399 11.4161 15.3399 11.4002C15.3399 11.3844 15.4877 11.2599 15.6684 11.124C16.3266 10.6279 16.7049 10.0504 16.7466 9.47831C16.8259 8.38725 15.9566 7.37025 14.6636 7.04063C14.3571 6.96244 14.2262 6.96 10.4336 6.96C8.28112 6.96 6.51993 6.94594 6.51993 6.92888C6.51993 6.88856 6.99824 6.42431 7.28006 6.19144C8.05387 5.55169 9.05906 5.04825 10.1001 4.77938L10.4601 4.68619L10.9716 5.20481C11.253 5.49 11.5288 5.7405 11.5843 5.76169ZM5.14349 9.09863C5.37918 9.25294 5.47574 9.64069 5.33662 9.87375C5.12137 10.2345 4.57612 10.2497 4.36068 9.90094C4.04737 9.39431 4.65074 8.77575 5.14349 9.09863ZM19.0279 9.11831C19.6444 9.49425 19.1666 10.419 18.5066 10.1271C18.066 9.93206 18.0519 9.32981 18.4828 9.11006C18.6626 9.01838 18.8692 9.02156 19.0279 9.11831ZM6.95999 11.4201V13.7199H4.92674L4.84612 13.3701C4.68749 12.681 4.62074 11.9681 4.66068 11.3842L4.68862 10.974L5.38762 10.6605C5.82618 10.464 6.10818 10.3142 6.14456 10.2585C6.30356 10.0161 6.28837 9.84281 6.06524 9.35006L5.96099 9.12H6.95999V11.4201ZM12.8137 9.22013C13.2491 9.33337 13.4792 9.56381 13.4797 9.88688C13.4801 10.1241 13.3626 10.2729 13.071 10.4046C12.8646 10.4979 12.8317 10.5002 11.5299 10.5129L10.2 10.5257V9.15994H11.3916C12.3223 9.15994 12.6337 9.17306 12.8137 9.22013ZM12.3645 12.5205C12.5803 12.5805 12.8355 12.768 12.9664 12.9628C13.1038 13.1676 13.1842 13.4338 13.3747 14.3158C13.5356 15.0613 13.6391 15.3051 13.929 15.6223C14.2881 16.0151 14.2048 15.9999 15.9984 15.9999C16.8574 15.9999 17.5599 16.0136 17.5599 16.0305C17.5599 16.0607 16.9684 16.7601 16.9429 16.7601C16.9356 16.7601 16.6266 16.6954 16.2562 16.6163C15.2106 16.3929 15.1729 16.4192 14.9329 17.5399L14.7786 18.2599L14.6392 18.3285C14.4067 18.4433 13.6511 18.6795 13.2594 18.7601C12.6122 18.8932 11.9077 18.9382 11.2886 18.8859C10.2332 18.7965 8.83556 18.387 8.78099 18.1509C8.76937 18.1009 8.69906 17.7769 8.62499 17.4307C8.55074 17.0846 8.46056 16.7563 8.42456 16.7012C8.25149 16.4372 8.06943 16.4209 7.26881 16.5981C6.96562 16.6652 6.70106 16.7199 6.68081 16.7199C6.64274 16.7199 6.08006 16.0693 6.08006 16.0254C6.08006 16.0118 7.41655 15.9958 9.05006 15.9902L12.0201 15.9801L12.0307 14.925C12.0382 14.1801 12.0279 13.8536 11.9957 13.815C11.9597 13.7715 11.7681 13.7601 11.0751 13.7601H10.2V12.48L11.2101 12.4802C11.7654 12.4804 12.285 12.4986 12.3645 12.5205ZM7.78799 17.3184C8.26031 17.6062 8.03381 18.3604 7.47524 18.3598C6.90243 18.3594 6.69018 17.6123 7.17824 17.3145C7.33968 17.2161 7.62337 17.2179 7.78799 17.3184ZM16.4366 17.3499C16.6682 17.5196 16.7452 17.8727 16.6018 18.1078C16.2251 18.7256 15.2831 18.2346 15.5977 17.5845C15.7524 17.2652 16.1636 17.1501 16.4366 17.3499Z" fill="white"/>
</svg>
