<svg width="20" height="20" viewBox="0 0 20 20" fill="none" xmlns="http://www.w3.org/2000/svg">
<path d="M10 0.507187C4.75708 0.507187 0.50708 4.75719 0.50708 10C0.50708 15.2425 4.75708 19.4928 10 19.4928C15.2429 19.4928 19.493 15.2425 19.493 10C19.493 4.75719 15.243 0.507187 10 0.507187ZM12.1299 3.77625C12.2131 3.63214 12.3238 3.50583 12.4558 3.40453C12.5878 3.30323 12.7385 3.22892 12.8992 3.18584C13.0599 3.14276 13.2276 3.13176 13.3925 3.15347C13.5575 3.17517 13.7166 3.22916 13.8607 3.31234C14.0048 3.39553 14.1311 3.50628 14.2324 3.63828C14.3337 3.77028 14.408 3.92094 14.4511 4.08166C14.4942 4.24237 14.5052 4.41 14.4835 4.57497C14.4617 4.73994 14.4078 4.89902 14.3246 5.04312C14.2414 5.18727 14.1307 5.31361 13.9987 5.41493C13.8667 5.51625 13.716 5.59056 13.5553 5.63361C13.3945 5.67667 13.2269 5.68762 13.0619 5.66585C12.8969 5.64407 12.7379 5.59 12.5938 5.50672C12.3029 5.33869 12.0906 5.06202 12.0036 4.73752C11.9166 4.41303 11.962 4.06726 12.1299 3.77625ZM10 4.49422C10.5097 4.49422 11.0027 4.565 11.471 4.69437C11.5129 4.95513 11.6124 5.20325 11.7624 5.42064C11.9124 5.63802 12.109 5.8192 12.3379 5.95094C12.5661 6.08288 12.8209 6.1624 13.0837 6.18372C13.3466 6.20505 13.6108 6.16764 13.8574 6.07422C14.7946 6.99578 15.4044 8.24906 15.4933 9.64516L13.6874 9.67172C13.5207 7.78062 11.934 6.29781 10 6.29781C9.46135 6.29727 8.92908 6.41477 8.44067 6.64203L7.55989 5.06406C8.31844 4.68844 9.1536 4.4934 10 4.49422ZM3.54521 11.2675C3.37874 11.2675 3.2139 11.2347 3.06011 11.1711C2.90631 11.1074 2.76656 11.014 2.64885 10.8963C2.53113 10.7786 2.43775 10.6389 2.37405 10.4851C2.31034 10.3313 2.27755 10.1665 2.27755 10C2.27751 9.83352 2.31027 9.66866 2.37396 9.51484C2.43765 9.36102 2.53102 9.22126 2.64875 9.10354C2.76647 8.98582 2.90623 8.89245 3.06005 8.82875C3.21386 8.76506 3.37872 8.7323 3.54521 8.73234C3.87895 8.73605 4.19777 8.87123 4.43246 9.10854C4.66716 9.34586 4.79879 9.66616 4.79879 9.99992C4.79879 10.3337 4.66716 10.654 4.43246 10.8913C4.19777 11.1286 3.87895 11.2638 3.54521 11.2675ZM4.6688 11.3803C4.87395 11.2135 5.03931 11.0031 5.15284 10.7643C5.26637 10.5255 5.3252 10.2644 5.32505 10C5.32505 9.44297 5.06895 8.94578 4.6688 8.61938C5.01161 7.29297 5.83677 6.16031 6.94552 5.41891L7.87224 6.97109C6.92036 7.64094 6.29817 8.7475 6.29817 10C6.29817 11.2525 6.92021 12.3591 7.87224 13.0286L6.94552 14.5812C5.8363 13.84 5.01114 12.707 4.6688 11.3803ZM13.8611 16.6872C13.7171 16.7705 13.558 16.8245 13.393 16.8463C13.228 16.868 13.0603 16.857 12.8996 16.8139C12.7389 16.7709 12.5882 16.6965 12.4562 16.5952C12.3242 16.4938 12.2135 16.3674 12.1304 16.2233C11.7802 15.6175 11.988 14.8428 12.5943 14.4927C13.2 14.1428 13.9752 14.3508 14.325 14.9566C14.4083 15.1006 14.4623 15.2597 14.484 15.4247C14.5057 15.5896 14.4948 15.7573 14.4517 15.918C14.4086 16.0787 14.3343 16.2294 14.2329 16.3613C14.1316 16.4933 14.0053 16.604 13.8611 16.6872ZM13.8574 13.9258C13.6109 13.8321 13.3466 13.7946 13.0837 13.8158C12.8209 13.8371 12.5661 13.9168 12.3379 14.0489C12.109 14.1807 11.9125 14.3619 11.7625 14.5793C11.6126 14.7966 11.513 15.0447 11.4711 15.3055C10.9921 15.4385 10.4972 15.506 10 15.5061C9.15361 15.5069 8.31848 15.3117 7.56005 14.9359L8.44067 13.3578C8.92907 13.5851 9.46134 13.7027 10 13.7022C11.9341 13.7022 13.5207 12.2197 13.6869 10.3284L15.4933 10.3548C15.4044 11.7509 14.7946 13.0042 13.8574 13.9258Z" fill="#DD4814"/>
</svg>
