<svg width="20" height="20" viewBox="0 0 20 20" fill="none" xmlns="http://www.w3.org/2000/svg">
<path fill-rule="evenodd" clip-rule="evenodd" d="M9.99996 0.797344C4.78949 0.797344 0.564331 5.02156 0.564331 10.233C0.564331 14.402 3.26793 17.9387 7.01699 19.1866C7.48839 19.2741 7.66152 18.9819 7.66152 18.7327C7.66152 18.5077 7.65277 17.7644 7.64871 16.9759C5.02371 17.5467 4.4698 15.8627 4.4698 15.8627C4.04058 14.772 3.42214 14.482 3.42214 14.482C2.56589 13.8964 3.48668 13.9086 3.48668 13.9086C4.43402 13.975 4.93308 14.8809 4.93308 14.8809C5.77464 16.3231 7.14042 15.9062 7.67886 15.6653C7.76355 15.0555 8.00808 14.6391 8.27793 14.4034C6.18214 14.1652 3.97886 13.3559 3.97886 9.74047C3.97886 8.71031 4.34761 7.86859 4.95121 7.20766C4.85308 6.97016 4.53011 6.01047 5.04246 4.71078C5.04246 4.71078 5.83464 4.45719 7.63777 5.67797C8.39058 5.46875 9.19792 5.36359 9.99996 5.36C10.8015 5.36359 11.6093 5.46844 12.3636 5.67766C14.1645 4.45687 14.9557 4.71047 14.9557 4.71047C15.4693 6.01 15.1464 6.96984 15.0484 7.20734C15.6534 7.86828 16.0195 8.71 16.0195 9.74016C16.0195 13.3642 13.8121 14.162 11.711 14.3958C12.0496 14.6886 12.3512 15.263 12.3512 16.1431C12.3512 17.4056 12.3403 18.4217 12.3403 18.7325C12.3403 18.9836 12.5103 19.2778 12.9884 19.1852C16.7353 17.9361 19.4357 14.4005 19.4357 10.233C19.4356 5.02187 15.2109 0.7975 9.99996 0.7975V0.797344Z" fill="white"/>
<path d="M4.13812 14.3447C4.11734 14.3916 4.04359 14.4056 3.9764 14.3736C3.90765 14.343 3.86937 14.2791 3.89156 14.232C3.91187 14.1836 3.98578 14.1703 4.05406 14.2027C4.12281 14.2334 4.16187 14.298 4.13797 14.3448L4.13812 14.3447ZM4.52031 14.7711C4.47547 14.8128 4.3875 14.7934 4.32781 14.7273C4.26593 14.6617 4.25437 14.5738 4.30015 14.5314C4.34672 14.4898 4.43203 14.5095 4.4939 14.5752C4.55547 14.6417 4.56765 14.7289 4.52047 14.7713L4.52031 14.7711ZM4.8925 15.3144C4.83468 15.3547 4.74 15.317 4.68156 15.2331C4.62375 15.1491 4.62375 15.0483 4.68312 15.0081C4.7414 14.9678 4.83468 15.0042 4.89406 15.0873C4.95156 15.1725 4.95156 15.2733 4.8925 15.3142V15.3144ZM5.40203 15.8395C5.35047 15.8966 5.24015 15.8812 5.15953 15.8036C5.07718 15.7275 5.05422 15.6192 5.10593 15.5623C5.15843 15.5052 5.26922 15.5211 5.35031 15.5983C5.43265 15.6742 5.4575 15.7827 5.40234 15.8394L5.40203 15.8395ZM6.10515 16.1444C6.08218 16.2183 5.97625 16.2519 5.86922 16.2203C5.7625 16.188 5.69265 16.1016 5.71453 16.0269C5.7364 15.9523 5.84312 15.9175 5.95078 15.9511C6.0575 15.9833 6.12734 16.0692 6.10515 16.1444ZM6.8775 16.2008C6.88015 16.2786 6.78953 16.343 6.6775 16.3445C6.56453 16.3472 6.47312 16.2841 6.47203 16.2075C6.47203 16.1289 6.56078 16.0653 6.67359 16.0631C6.78562 16.0611 6.87765 16.1236 6.87765 16.2006L6.8775 16.2008ZM7.59593 16.0786C7.60937 16.1544 7.5314 16.2323 7.42 16.2531C7.31062 16.2734 7.20906 16.2262 7.195 16.1511C7.18156 16.0733 7.26093 15.9953 7.37031 15.9752C7.48187 15.9559 7.58187 16.0017 7.59593 16.0787V16.0786Z" fill="white"/>
</svg>
