<svg width="20" height="20" viewBox="0 0 20 20" fill="none" xmlns="http://www.w3.org/2000/svg">
<path d="M19.7836 11.2984L18.6845 7.91625L16.5064 1.21281C16.422 0.953125 16.1252 0.889375 15.9355 1.02063C15.873 1.06375 15.8223 1.15391 15.7945 1.23906L13.6163 7.96875H6.38375L4.94063 3.50156L4.20578 1.22609C4.19276 1.18337 4.17315 1.14293 4.14766 1.10625C4.13547 1.09 4.11953 1.07594 4.10547 1.0625C3.95907 0.923438 3.72032 0.925625 3.58047 1.07375C3.54126 1.1131 3.51155 1.16087 3.4936 1.21344L1.31547 7.91656L0.85516 9.33344L0.21641 11.2984C0.178042 11.4173 0.170096 11.5439 0.193298 11.6666C0.2165 11.7893 0.27011 11.9043 0.349222 12.0009C0.389847 12.0505 0.43516 12.0967 0.488285 12.1353L10 19.0461L19.5116 12.1356C19.6396 12.0428 19.7349 11.9117 19.7837 11.7613C19.8326 11.611 19.8325 11.4489 19.7834 11.2986L19.7836 11.2984Z" fill="#E24329"/>
</svg>
