<svg width="152" height="93" viewBox="0 0 152 93" fill="none" xmlns="http://www.w3.org/2000/svg">
    <g filter="url(#filter0_i_31_231)">
        <path
            d="M91.457 65.4852L91.5637 65.1557L91.2928 64.94C86.8552 61.407 85.3257 57.6549 85.2532 53.6212C85.1796 49.5333 86.5982 45.1327 88.1646 40.2964C90.923 31.7797 96.1666 25.9861 102.573 22.9199C108.984 19.8513 116.598 19.4961 124.121 21.9328C131.646 24.3698 137.606 29.1215 141.001 35.3659C144.392 41.6055 145.243 49.373 142.485 57.8896C140.919 62.726 139.488 67.1227 137.032 70.3912C134.608 73.6165 131.17 75.7595 125.503 76.0201L125.157 76.036L125.051 76.3655L122.611 83.8963C121.77 86.4956 118.981 87.92 116.381 87.0781C113.783 86.2368 112.358 83.4471 113.199 80.8479L114.964 75.3984L115.132 74.8815L114.603 74.7575C114.033 74.6242 113.448 74.4764 112.847 74.3216L112.391 74.2044L112.247 74.6518L110.521 79.9803C109.679 82.5797 106.89 84.0041 104.291 83.1622C101.691 82.3203 100.267 79.5313 101.109 76.9319L102.834 71.6034L102.98 71.1548L102.54 70.9835C101.966 70.7593 101.404 70.5338 100.864 70.3078L100.362 70.098L100.195 70.6149L98.4301 76.0644C97.5882 78.6637 94.7991 80.0881 92.1998 79.2463C89.6005 78.4044 88.1761 75.6153 89.018 73.016L91.457 65.4852Z"
            fill="#F0F0F0" stroke="black" />
        <path
            d="M112.513 44.3656C111.053 48.8726 106.216 51.3428 101.709 49.8831C97.2023 48.4234 94.7321 43.5865 96.1918 39.0796C97.6515 34.5726 102.488 32.1024 106.995 33.5621C111.502 35.0218 113.973 39.8587 112.513 44.3656Z"
            fill="#454545" stroke="black" />
        <g filter="url(#filter1_i_31_231)">
            <path
                d="M125.737 58.1906C130.506 59.7354 135.625 57.1212 137.17 52.3515C138.715 47.5819 136.101 42.463 131.331 40.9182C126.561 39.3734 121.443 41.9877 119.898 46.7573C118.353 51.527 120.967 56.6459 125.737 58.1906Z"
                fill="#454545" />
        </g>
        <path
            d="M136.694 52.1975C135.235 56.7044 130.398 59.1747 125.891 57.715C121.384 56.2553 118.914 51.4183 120.373 46.9114C121.833 42.4045 126.67 39.9342 131.177 41.3939C135.684 42.8536 138.154 47.6905 136.694 52.1975Z"
            stroke="black" />
        <path
            d="M114.163 62.3937L114.181 62.6368L114.384 62.7718C115.197 63.312 115.589 64.3332 115.276 65.2988C114.898 66.4662 113.643 67.107 112.476 66.7289C111.558 66.4317 110.971 65.5879 110.949 64.6645L110.941 64.2974L110.588 64.1959C110.544 64.1834 110.501 64.1745 110.478 64.17C110.476 64.1695 110.474 64.169 110.472 64.1686C110.452 64.1646 110.446 64.1629 110.444 64.1625C110.443 64.1619 110.436 64.1594 110.418 64.1513C110.416 64.1505 110.414 64.1495 110.412 64.1484C110.391 64.1391 110.351 64.1209 110.308 64.1055L109.962 63.9805L109.74 64.2737C109.183 65.0085 108.214 65.3485 107.294 65.0506C106.125 64.672 105.486 63.418 105.864 62.2504C106.177 61.2839 107.092 60.6852 108.067 60.7258L108.311 60.736L108.469 60.549C109.078 59.8283 110.394 59.472 111.814 59.9321C113.235 60.3921 114.09 61.4511 114.163 62.3937Z"
            fill="#454545" stroke="black" />
    </g>
    <g filter="url(#filter2_i_31_231)">
        <path
            d="M26.864 76.3663L26.7573 76.0368L26.4113 76.0209C20.745 75.7607 17.3061 73.6179 14.8823 70.3928C12.4259 67.1245 10.995 62.7279 9.42825 57.8916C6.66931 49.3752 7.52018 41.6074 10.9119 35.3676C14.3062 29.1229 20.266 24.3707 27.7894 21.9335C35.3136 19.496 42.9278 19.8507 49.3388 22.9189C55.7449 25.9848 60.9885 31.7782 63.7475 40.2946C65.3142 45.1309 66.7331 49.5314 66.6598 53.6192C66.5875 57.6529 65.0584 61.4051 60.621 64.9385L60.3501 65.1542L60.4568 65.4837L62.8964 73.0143C63.7384 75.6136 62.3142 78.4027 59.7149 79.2448C57.1173 80.0863 54.3265 78.6625 53.4845 76.0634L51.7191 70.614L51.5517 70.0971L51.0504 70.3069C50.511 70.5327 49.9505 70.756 49.3725 70.9832L48.9348 71.1553L49.0798 71.6027L50.8059 76.9311C51.648 79.5304 50.2238 82.3195 47.6245 83.1615C45.0252 84.0036 42.2361 82.5794 41.394 79.9801L39.6679 74.6517L39.5225 74.2031L39.0662 74.3219C38.4691 74.4774 37.8817 74.6241 37.3118 74.7576L36.7827 74.8816L36.9502 75.3985L38.7155 80.8478C39.5576 83.4471 38.1334 86.2363 35.5341 87.0783C32.9348 87.9204 30.1457 86.4961 29.3036 83.8969L26.864 76.3663Z"
            fill="#F0F0F0" stroke="black" />
        <g filter="url(#filter3_i_31_231)">
            <path
                d="M26.1757 58.1917C30.9453 56.6466 33.5592 51.5275 32.0141 46.758C30.4689 41.9884 25.3499 39.3745 20.5804 40.9196C15.8108 42.4647 13.1969 47.5838 14.742 52.3533C16.2871 57.1229 21.4062 59.7368 26.1757 58.1917Z"
                fill="#454545" />
        </g>
        <path
            d="M31.5384 46.9121C32.9984 51.4189 30.5285 56.256 26.0216 57.716C21.5148 59.176 16.6777 56.7061 15.2177 52.1992C13.7577 47.6924 16.2276 42.8553 20.7345 41.3953C25.2413 39.9353 30.0784 42.4052 31.5384 46.9121Z"
            stroke="black" />
        <path
            d="M55.7186 39.0786C57.1786 43.5854 54.7087 48.4225 50.2018 49.8825C45.695 51.3425 40.8579 48.8726 39.3979 44.3657C37.9378 39.8589 40.4078 35.0218 44.9146 33.5618C49.4215 32.1018 54.2586 34.5717 55.7186 39.0786Z"
            fill="#454545" stroke="black" />
        <path
            d="M43.445 60.5493L43.6027 60.7352L43.8463 60.7255C44.8214 60.6867 45.7373 61.2843 46.0501 62.2499C46.4283 63.4173 45.7876 64.6721 44.6201 65.0503C43.7025 65.3475 42.7326 65.008 42.1734 64.2729L41.951 63.9805L41.6056 64.1053C41.5629 64.1207 41.5226 64.139 41.502 64.1483C41.4996 64.1494 41.4975 64.1503 41.4957 64.1511C41.4777 64.1592 41.4713 64.1618 41.4698 64.1623C41.4683 64.1627 41.4615 64.1644 41.4422 64.1684C41.4403 64.1688 41.438 64.1693 41.4355 64.1698C41.4134 64.1744 41.37 64.1832 41.3264 64.1958L40.9728 64.2974L40.9647 64.6652C40.9441 65.5871 40.3582 66.4309 39.4385 66.7289C38.2696 67.1076 37.0164 66.4666 36.6382 65.2989C36.3251 64.3325 36.7153 63.311 37.5287 62.7724L37.7328 62.6372L37.7512 62.3931C37.8223 61.452 38.6787 60.3923 40.0994 59.9321C41.5196 59.472 42.8336 59.8282 43.445 60.5493Z"
            fill="#454545" stroke="black" />
    </g>
    <g filter="url(#filter4_i_31_231)">
        <path
            d="M53.9775 64.44V64.0937L53.6533 63.9719C47.0401 61.4889 43.7774 57.6232 42.1396 52.8603C40.4841 48.0462 40.4775 42.2944 40.4775 36C40.4775 24.8757 44.459 16.0106 50.8665 9.92505C57.278 3.83572 66.15 0.5 75.9775 0.5C85.8062 0.5 94.6782 3.83573 101.089 9.92504C107.497 16.0106 111.478 24.8757 111.478 36C111.478 42.2944 111.471 48.0462 109.816 52.8603C108.178 57.6232 104.915 61.4889 98.3018 63.9719L97.9775 64.0937V64.44V74.25C97.9775 77.7021 95.1796 80.5 91.7275 80.5C88.2776 80.5 85.4775 77.702 85.4775 74.25V67.1512V66.6078L84.936 66.653C84.2125 66.7133 83.4654 66.7625 82.6969 66.8097L82.2275 66.8385V67.3088V74.25C82.2275 77.7021 79.4296 80.5 75.9775 80.5C72.5254 80.5 69.7275 77.7021 69.7275 74.25V67.3088V66.8372L69.2568 66.8096C68.4927 66.7648 67.7432 66.7133 67.0191 66.653L66.4775 66.6078V67.1512V74.25C66.4775 77.7021 63.6796 80.5 60.2275 80.5C56.7754 80.5 53.9775 77.7021 53.9775 74.25V64.44Z"
            fill="#F0F0F0" stroke="black" />
        <g filter="url(#filter5_i_31_231)">
            <path
                d="M60.2275 42.75C66.4407 42.75 71.4775 37.7132 71.4775 31.5C71.4775 25.2868 66.4407 20.25 60.2275 20.25C54.0143 20.25 48.9775 25.2868 48.9775 31.5C48.9775 37.7132 54.0143 42.75 60.2275 42.75Z"
                fill="#454545" />
        </g>
        <path
            d="M70.9775 31.5C70.9775 37.4371 66.1646 42.25 60.2275 42.25C54.2905 42.25 49.4775 37.4371 49.4775 31.5C49.4775 25.5629 54.2905 20.75 60.2275 20.75C66.1646 20.75 70.9775 25.5629 70.9775 31.5Z"
            stroke="black" />
        <g filter="url(#filter6_i_31_231)">
            <path
                d="M91.7275 42.75C97.9407 42.75 102.978 37.7132 102.978 31.5C102.978 25.2868 97.9407 20.25 91.7275 20.25C85.5143 20.25 80.4775 25.2868 80.4775 31.5C80.4775 37.7132 85.5143 42.75 91.7275 42.75Z"
                fill="#454545" />
        </g>
        <path
            d="M102.478 31.5C102.478 37.4371 97.6646 42.25 91.7275 42.25C85.7905 42.25 80.9775 37.4371 80.9775 31.5C80.9775 25.5629 85.7905 20.75 91.7275 20.75C97.6646 20.75 102.478 25.5629 102.478 31.5Z"
            stroke="black" />
        <path
            d="M79.7968 52.0796L79.8895 52.3051L80.1242 52.3709C81.338 52.7114 82.2275 53.8111 82.2275 55.125C82.2275 56.7119 80.9394 58 79.3525 58C78.1039 58 77.0464 57.1947 76.6519 56.0689L76.5304 55.7223L76.1634 55.7345C76.1122 55.7362 76.0626 55.7418 76.0343 55.7449C76.031 55.7453 76.028 55.7456 76.0253 55.7459C75.9923 55.7495 75.9825 55.75 75.9775 55.75C75.9725 55.75 75.9628 55.7495 75.9297 55.7459C75.9271 55.7456 75.9241 55.7453 75.9208 55.7449C75.8925 55.7418 75.8428 55.7362 75.7917 55.7345L75.424 55.7223L75.3029 56.0696C74.9107 57.1945 73.8538 58 72.6025 58C71.0136 58 69.7275 56.7121 69.7275 55.125C69.7275 53.8103 70.6156 52.7093 71.8299 52.3712L72.0657 52.3055L72.1585 52.079C72.6252 50.9392 74.0932 50 75.9775 50C77.8614 50 79.3279 50.9389 79.7968 52.0796Z"
            fill="#454545" stroke="black" />
    </g>
    <defs>
        <filter id="filter0_i_31_231" x="82.7505" y="19.8312" width="61.8809" height="68.9891"
            filterUnits="userSpaceOnUse" color-interpolation-filters="sRGB">
            <feFlood flood-opacity="0" result="BackgroundImageFix" />
            <feBlend mode="normal" in="SourceGraphic" in2="BackgroundImageFix" result="shape" />
            <feColorMatrix in="SourceAlpha" type="matrix"
                values="0 0 0 0 0 0 0 0 0 0 0 0 0 0 0 0 0 0 127 0" result="hardAlpha" />
            <feOffset dx="-2" dy="1" />
            <feGaussianBlur stdDeviation="2" />
            <feComposite in2="hardAlpha" operator="arithmetic" k2="-1" k3="1" />
            <feColorMatrix type="matrix" values="0 0 0 0 0 0 0 0 0 0 0 0 0 0 0 0 0 0 0.45 0" />
            <feBlend mode="normal" in2="shape" result="effect1_innerShadow_31_231" />
        </filter>
        <filter id="filter1_i_31_231" x="116.454" y="40.4741" width="21.1606" height="22.1607"
            filterUnits="userSpaceOnUse" color-interpolation-filters="sRGB">
            <feFlood flood-opacity="0" result="BackgroundImageFix" />
            <feBlend mode="normal" in="SourceGraphic" in2="BackgroundImageFix" result="shape" />
            <feColorMatrix in="SourceAlpha" type="matrix"
                values="0 0 0 0 0 0 0 0 0 0 0 0 0 0 0 0 0 0 127 0" result="hardAlpha" />
            <feOffset dx="-3" dy="4" />
            <feGaussianBlur stdDeviation="4.5" />
            <feComposite in2="hardAlpha" operator="arithmetic" k2="-1" k3="1" />
            <feColorMatrix type="matrix" values="0 0 0 0 0 0 0 0 0 0 0 0 0 0 0 0 0 0 0.8 0" />
            <feBlend mode="normal" in2="shape" result="effect1_innerShadow_31_231" />
        </filter>
        <filter id="filter2_i_31_231" x="5.28125" y="19.8311" width="61.8813" height="68.9895"
            filterUnits="userSpaceOnUse" color-interpolation-filters="sRGB">
            <feFlood flood-opacity="0" result="BackgroundImageFix" />
            <feBlend mode="normal" in="SourceGraphic" in2="BackgroundImageFix" result="shape" />
            <feColorMatrix in="SourceAlpha" type="matrix"
                values="0 0 0 0 0 0 0 0 0 0 0 0 0 0 0 0 0 0 127 0" result="hardAlpha" />
            <feOffset dx="-2" dy="1" />
            <feGaussianBlur stdDeviation="2" />
            <feComposite in2="hardAlpha" operator="arithmetic" k2="-1" k3="1" />
            <feColorMatrix type="matrix" values="0 0 0 0 0 0 0 0 0 0 0 0 0 0 0 0 0 0 0.45 0" />
            <feBlend mode="normal" in2="shape" result="effect1_innerShadow_31_231" />
        </filter>
        <filter id="filter3_i_31_231" x="11.2979" y="40.4753" width="21.1606" height="22.1607"
            filterUnits="userSpaceOnUse" color-interpolation-filters="sRGB">
            <feFlood flood-opacity="0" result="BackgroundImageFix" />
            <feBlend mode="normal" in="SourceGraphic" in2="BackgroundImageFix" result="shape" />
            <feColorMatrix in="SourceAlpha" type="matrix"
                values="0 0 0 0 0 0 0 0 0 0 0 0 0 0 0 0 0 0 127 0" result="hardAlpha" />
            <feOffset dx="-3" dy="4" />
            <feGaussianBlur stdDeviation="4.5" />
            <feComposite in2="hardAlpha" operator="arithmetic" k2="-1" k3="1" />
            <feColorMatrix type="matrix" values="0 0 0 0 0 0 0 0 0 0 0 0 0 0 0 0 0 0 0.8 0" />
            <feBlend mode="normal" in2="shape" result="effect1_innerShadow_31_231" />
        </filter>
        <filter id="filter4_i_31_231" x="37.9775" y="0" width="74" height="82"
            filterUnits="userSpaceOnUse" color-interpolation-filters="sRGB">
            <feFlood flood-opacity="0" result="BackgroundImageFix" />
            <feBlend mode="normal" in="SourceGraphic" in2="BackgroundImageFix" result="shape" />
            <feColorMatrix in="SourceAlpha" type="matrix"
                values="0 0 0 0 0 0 0 0 0 0 0 0 0 0 0 0 0 0 127 0" result="hardAlpha" />
            <feOffset dx="-2" dy="1" />
            <feGaussianBlur stdDeviation="2" />
            <feComposite in2="hardAlpha" operator="arithmetic" k2="-1" k3="1" />
            <feColorMatrix type="matrix" values="0 0 0 0 0 0 0 0 0 0 0 0 0 0 0 0 0 0 0.45 0" />
            <feBlend mode="normal" in2="shape" result="effect1_innerShadow_31_231" />
        </filter>
        <filter id="filter5_i_31_231" x="45.9775" y="20.25" width="25.5" height="26.5"
            filterUnits="userSpaceOnUse" color-interpolation-filters="sRGB">
            <feFlood flood-opacity="0" result="BackgroundImageFix" />
            <feBlend mode="normal" in="SourceGraphic" in2="BackgroundImageFix" result="shape" />
            <feColorMatrix in="SourceAlpha" type="matrix"
                values="0 0 0 0 0 0 0 0 0 0 0 0 0 0 0 0 0 0 127 0" result="hardAlpha" />
            <feOffset dx="-3" dy="4" />
            <feGaussianBlur stdDeviation="4.5" />
            <feComposite in2="hardAlpha" operator="arithmetic" k2="-1" k3="1" />
            <feColorMatrix type="matrix" values="0 0 0 0 0 0 0 0 0 0 0 0 0 0 0 0 0 0 0.8 0" />
            <feBlend mode="normal" in2="shape" result="effect1_innerShadow_31_231" />
        </filter>
        <filter id="filter6_i_31_231" x="77.4775" y="20.25" width="25.5" height="26.5"
            filterUnits="userSpaceOnUse" color-interpolation-filters="sRGB">
            <feFlood flood-opacity="0" result="BackgroundImageFix" />
            <feBlend mode="normal" in="SourceGraphic" in2="BackgroundImageFix" result="shape" />
            <feColorMatrix in="SourceAlpha" type="matrix"
                values="0 0 0 0 0 0 0 0 0 0 0 0 0 0 0 0 0 0 127 0" result="hardAlpha" />
            <feOffset dx="-3" dy="4" />
            <feGaussianBlur stdDeviation="4.5" />
            <feComposite in2="hardAlpha" operator="arithmetic" k2="-1" k3="1" />
            <feColorMatrix type="matrix" values="0 0 0 0 0 0 0 0 0 0 0 0 0 0 0 0 0 0 0.8 0" />
            <feBlend mode="normal" in2="shape" result="effect1_innerShadow_31_231" />
        </filter>
    </defs>
</svg>